<svg width="333" height="73" viewBox="0 0 333 73" fill="none" xmlns="http://www.w3.org/2000/svg">
<path d="M7.44 59.784C7.344 59.528 7.248 59.3413 7.152 59.224C7.06667 59.096 6.94933 59.0107 6.8 58.968C6.65067 58.9253 6.432 58.904 6.144 58.904V58.44H9.984V58.904H9.2C8.944 58.904 8.816 58.9947 8.816 59.176C8.816 59.2187 8.83733 59.3147 8.88 59.464L11.568 67.192L11.616 67.208L14.272 59.496C14.304 59.3787 14.32 59.2773 14.32 59.192C14.32 59.096 14.288 59.0267 14.224 58.984C14.1707 58.9307 14.0747 58.904 13.936 58.904H13.184V58.44H16.24V58.904C15.8773 58.904 15.616 58.9573 15.456 59.064C15.296 59.1707 15.1467 59.3947 15.008 59.736L11.584 69H10.672L7.44 59.784ZM22.9694 65.32H17.8814C17.9027 66.312 18.0787 67.096 18.4094 67.672C18.7507 68.248 19.348 68.536 20.2014 68.536C20.82 68.536 21.3107 68.376 21.6734 68.056C22.036 67.736 22.3027 67.3253 22.4734 66.824L22.9214 67.016C22.6974 67.6667 22.3507 68.1893 21.8814 68.584C21.412 68.9787 20.7134 69.176 19.7854 69.176C18.644 69.176 17.7907 68.8453 17.2254 68.184C16.6707 67.5227 16.3934 66.5733 16.3934 65.336C16.3934 64.0667 16.6814 63.0853 17.2574 62.392C17.8334 61.688 18.6814 61.336 19.8014 61.336C21.9134 61.336 22.9694 62.616 22.9694 65.176V65.32ZM21.4814 64.808C21.4814 63.7947 21.3587 63.048 21.1134 62.568C20.868 62.0773 20.436 61.832 19.8174 61.832C19.188 61.832 18.7187 62.0827 18.4094 62.584C18.1 63.0747 17.924 63.816 17.8814 64.808H21.4814ZM28.6791 61.32C29.0631 61.32 29.3565 61.432 29.5591 61.656C29.7725 61.88 29.8791 62.1893 29.8791 62.584C29.8791 62.904 29.8045 63.1547 29.6551 63.336C29.5058 63.5173 29.2765 63.608 28.9671 63.608C28.7005 63.608 28.4925 63.5387 28.3431 63.4C28.2045 63.2613 28.1351 63.08 28.1351 62.856C28.1351 62.728 28.1565 62.6213 28.1991 62.536C28.2418 62.4507 28.3058 62.36 28.3911 62.264C28.4765 62.168 28.5191 62.0933 28.5191 62.04C28.5191 61.944 28.4498 61.896 28.3111 61.896C28.1085 61.896 27.8898 61.9973 27.6551 62.2C27.4311 62.4027 27.2338 62.68 27.0631 63.032C26.8925 63.3733 26.7858 63.7467 26.7431 64.152V67.672C26.7431 67.9493 26.7645 68.1467 26.8071 68.264C26.8605 68.3707 26.9671 68.4453 27.1271 68.488C27.2871 68.52 27.5591 68.536 27.9431 68.536V69H24.2791V68.536C24.6311 68.536 24.8818 68.5147 25.0311 68.472C25.1805 68.4293 25.2711 68.3547 25.3031 68.248C25.3458 68.1413 25.3671 67.9493 25.3671 67.672V62.904C25.3671 62.6267 25.3351 62.4453 25.2711 62.36C25.2071 62.264 25.0845 62.216 24.9031 62.216H24.3591V61.736L26.2471 61.416H26.6951V62.92H26.7111C26.9458 62.472 27.2125 62.0933 27.5111 61.784C27.8098 61.4747 28.1991 61.32 28.6791 61.32ZM37.0319 65.32H31.9439C31.9652 66.312 32.1412 67.096 32.4719 67.672C32.8132 68.248 33.4105 68.536 34.2639 68.536C34.8825 68.536 35.3732 68.376 35.7359 68.056C36.0985 67.736 36.3652 67.3253 36.5359 66.824L36.9839 67.016C36.7599 67.6667 36.4132 68.1893 35.9439 68.584C35.4745 68.9787 34.7759 69.176 33.8479 69.176C32.7065 69.176 31.8532 68.8453 31.2879 68.184C30.7332 67.5227 30.4559 66.5733 30.4559 65.336C30.4559 64.0667 30.7439 63.0853 31.3199 62.392C31.8959 61.688 32.7439 61.336 33.8639 61.336C35.9759 61.336 37.0319 62.616 37.0319 65.176V65.32ZM35.5439 64.808C35.5439 63.7947 35.4212 63.048 35.1759 62.568C34.9305 62.0773 34.4985 61.832 33.8799 61.832C33.2505 61.832 32.7812 62.0827 32.4719 62.584C32.1625 63.0747 31.9865 63.816 31.9439 64.808H35.5439ZM40.0536 60.008C39.7976 60.008 39.5843 59.928 39.4136 59.768C39.2536 59.5973 39.1736 59.3893 39.1736 59.144C39.1736 58.888 39.2536 58.6747 39.4136 58.504C39.5843 58.3333 39.7976 58.248 40.0536 58.248C40.3203 58.248 40.5336 58.3333 40.6936 58.504C40.8536 58.6747 40.9336 58.888 40.9336 59.144C40.9336 59.3893 40.8483 59.5973 40.6776 59.768C40.5176 59.928 40.3096 60.008 40.0536 60.008ZM38.3256 68.536C38.6776 68.536 38.9283 68.5147 39.0776 68.472C39.227 68.4293 39.3176 68.3547 39.3496 68.248C39.3923 68.1413 39.4136 67.9493 39.4136 67.672V62.904C39.4136 62.6267 39.3816 62.4453 39.3176 62.36C39.2643 62.264 39.1416 62.216 38.9496 62.216H38.4056V61.736L40.3416 61.416H40.7896V67.672C40.7896 67.9493 40.811 68.1467 40.8536 68.264C40.8963 68.3707 40.987 68.4453 41.1256 68.488C41.275 68.52 41.5256 68.536 41.8776 68.536V69H38.3256V68.536ZM50.26 67.672C50.26 67.9387 50.2813 68.1307 50.324 68.248C50.3667 68.3547 50.4627 68.4293 50.612 68.472C50.7613 68.5147 51.012 68.536 51.364 68.536V69H47.86V68.536C48.2013 68.536 48.4413 68.52 48.58 68.488C48.7187 68.4453 48.8093 68.3707 48.852 68.264C48.8947 68.1573 48.916 67.9707 48.916 67.704V63.816C48.916 63.304 48.7933 62.8933 48.548 62.584C48.3133 62.264 47.94 62.104 47.428 62.104C47.012 62.104 46.66 62.2053 46.372 62.408C46.084 62.6 45.8067 62.8773 45.54 63.24V67.704C45.54 67.9707 45.5613 68.1627 45.604 68.28C45.6467 68.3867 45.7373 68.456 45.876 68.488C46.0147 68.52 46.2493 68.536 46.58 68.536V69H43.076V68.536C43.428 68.536 43.6787 68.5147 43.828 68.472C43.9773 68.4293 44.068 68.3547 44.1 68.248C44.1427 68.1413 44.164 67.9493 44.164 67.672V62.904C44.164 62.6267 44.132 62.4453 44.068 62.36C44.004 62.264 43.8813 62.216 43.7 62.216H43.156V61.736L45.044 61.416H45.492V62.6H45.508C45.8707 62.1733 46.26 61.8587 46.676 61.656C47.092 61.4427 47.5667 61.336 48.1 61.336C49.54 61.336 50.26 62.104 50.26 63.64V67.672ZM56.3268 68.52L60.9348 62.008H59.3508C58.8174 62.008 58.4121 62.0613 58.1348 62.168C57.8681 62.264 57.6761 62.4347 57.5588 62.68C57.4414 62.9147 57.3401 63.2773 57.2548 63.768H56.8228L56.8868 61.512H62.4388V61.992L57.8307 68.488H59.8788C60.4441 68.488 60.8761 68.4347 61.1748 68.328C61.4841 68.2213 61.7188 68.04 61.8788 67.784C62.0388 67.528 62.1668 67.144 62.2628 66.632H62.6788L62.5188 69H56.3268V68.52ZM70.7719 67.672C70.7719 67.9387 70.7932 68.1307 70.8359 68.248C70.8785 68.3547 70.9745 68.4293 71.1239 68.472C71.2732 68.5147 71.5185 68.536 71.8599 68.536V69H69.4439V67.88H69.3959V67.848C68.7025 68.744 67.8385 69.192 66.8039 69.192C65.3852 69.192 64.6759 68.4293 64.6759 66.904V62.872C64.6759 62.5947 64.6439 62.408 64.5799 62.312C64.5159 62.216 64.3879 62.168 64.1959 62.168H63.6519V61.704L65.5879 61.416H66.0359V66.648C66.0359 67.1813 66.1532 67.608 66.3879 67.928C66.6332 68.248 67.0065 68.408 67.5079 68.408C68.2012 68.408 68.8305 68.0027 69.3959 67.192L69.4119 62.872C69.4119 62.5947 69.3799 62.408 69.3159 62.312C69.2519 62.216 69.1239 62.168 68.9319 62.168H68.3879V61.704L70.3239 61.416H70.7719V67.672ZM77.1323 61.32C77.5163 61.32 77.8096 61.432 78.0123 61.656C78.2256 61.88 78.3323 62.1893 78.3323 62.584C78.3323 62.904 78.2576 63.1547 78.1083 63.336C77.9589 63.5173 77.7296 63.608 77.4203 63.608C77.1536 63.608 76.9456 63.5387 76.7963 63.4C76.6576 63.2613 76.5883 63.08 76.5883 62.856C76.5883 62.728 76.6096 62.6213 76.6523 62.536C76.6949 62.4507 76.7589 62.36 76.8443 62.264C76.9296 62.168 76.9723 62.0933 76.9723 62.04C76.9723 61.944 76.9029 61.896 76.7643 61.896C76.5616 61.896 76.3429 61.9973 76.1083 62.2C75.8843 62.4027 75.6869 62.68 75.5163 63.032C75.3456 63.3733 75.2389 63.7467 75.1963 64.152V67.672C75.1963 67.9493 75.2176 68.1467 75.2603 68.264C75.3136 68.3707 75.4203 68.4453 75.5803 68.488C75.7403 68.52 76.0123 68.536 76.3963 68.536V69H72.7323V68.536C73.0843 68.536 73.3349 68.5147 73.4843 68.472C73.6336 68.4293 73.7243 68.3547 73.7563 68.248C73.7989 68.1413 73.8203 67.9493 73.8203 67.672V62.904C73.8203 62.6267 73.7883 62.4453 73.7243 62.36C73.6603 62.264 73.5376 62.216 73.3563 62.216H72.8123V61.736L74.7003 61.416H75.1483V62.92H75.1643C75.3989 62.472 75.6656 62.0933 75.9643 61.784C76.2629 61.4747 76.6523 61.32 77.1323 61.32ZM83.0969 68.536C83.5022 68.536 83.7849 68.5147 83.9449 68.472C84.1155 68.4187 84.2222 68.3333 84.2649 68.216C84.3075 68.088 84.3289 67.8747 84.3289 67.576V59.864C84.3289 59.5653 84.3022 59.3573 84.2489 59.24C84.2062 59.112 84.0995 59.0267 83.9289 58.984C83.7689 58.9307 83.4915 58.904 83.0969 58.904V58.44H90.5689V60.952H90.1369C90.0409 60.3973 89.9235 59.9867 89.7849 59.72C89.6462 59.4533 89.4222 59.2667 89.1129 59.16C88.8142 59.0427 88.3662 58.984 87.7689 58.984H86.3929C86.1475 58.984 85.9875 59.016 85.9129 59.08C85.8489 59.144 85.8169 59.304 85.8169 59.56V63.432H87.7049C88.1102 63.432 88.4089 63.3893 88.6009 63.304C88.7929 63.2187 88.9262 63.0907 89.0009 62.92C89.0755 62.7493 89.1449 62.472 89.2089 62.088H89.5769V65.4H89.2089C89.1449 65.016 89.0755 64.7387 89.0009 64.568C88.9262 64.3973 88.7929 64.2693 88.6009 64.184C88.4089 64.0987 88.1102 64.056 87.7049 64.056H85.8169V67.576C85.8169 67.8747 85.8435 68.088 85.8969 68.216C85.9502 68.3333 86.0729 68.4187 86.2649 68.472C86.4675 68.5147 86.8089 68.536 87.2889 68.536V69H83.0969V68.536ZM94.6619 69.176C92.3472 69.176 91.1899 67.8693 91.1899 65.256C91.1899 63.9653 91.4779 62.9893 92.0539 62.328C92.6299 61.656 93.5045 61.32 94.6779 61.32C96.9925 61.32 98.1499 62.6267 98.1499 65.24C98.1499 67.864 96.9872 69.176 94.6619 69.176ZM94.6779 68.664C96.0005 68.664 96.6619 67.5493 96.6619 65.32C96.6619 62.9947 95.9952 61.832 94.6619 61.832C94.0005 61.832 93.5045 62.1253 93.1739 62.712C92.8432 63.288 92.6779 64.136 92.6779 65.256C92.6779 67.528 93.3445 68.664 94.6779 68.664ZM93.2859 59.816C93.0725 59.816 92.8859 59.7413 92.7259 59.592C92.5765 59.4427 92.5019 59.2613 92.5019 59.048C92.5019 58.8347 92.5765 58.6533 92.7259 58.504C92.8859 58.344 93.0725 58.264 93.2859 58.264C93.4992 58.264 93.6805 58.344 93.8299 58.504C93.9899 58.6533 94.0699 58.8347 94.0699 59.048C94.0699 59.2613 93.9899 59.4427 93.8299 59.592C93.6805 59.7413 93.4992 59.816 93.2859 59.816ZM96.0539 59.816C95.8405 59.816 95.6539 59.7413 95.4939 59.592C95.3445 59.4427 95.2699 59.2613 95.2699 59.048C95.2699 58.8347 95.3445 58.6533 95.4939 58.504C95.6539 58.344 95.8405 58.264 96.0539 58.264C96.2672 58.264 96.4485 58.344 96.5979 58.504C96.7579 58.6533 96.8379 58.8347 96.8379 59.048C96.8379 59.2613 96.7579 59.4427 96.5979 59.592C96.4485 59.7413 96.2672 59.816 96.0539 59.816ZM103.898 61.32C104.282 61.32 104.575 61.432 104.778 61.656C104.991 61.88 105.098 62.1893 105.098 62.584C105.098 62.904 105.023 63.1547 104.874 63.336C104.725 63.5173 104.495 63.608 104.186 63.608C103.919 63.608 103.711 63.5387 103.562 63.4C103.423 63.2613 103.354 63.08 103.354 62.856C103.354 62.728 103.375 62.6213 103.418 62.536C103.461 62.4507 103.525 62.36 103.61 62.264C103.695 62.168 103.738 62.0933 103.738 62.04C103.738 61.944 103.669 61.896 103.53 61.896C103.327 61.896 103.109 61.9973 102.874 62.2C102.65 62.4027 102.453 62.68 102.282 63.032C102.111 63.3733 102.005 63.7467 101.962 64.152V67.672C101.962 67.9493 101.983 68.1467 102.026 68.264C102.079 68.3707 102.186 68.4453 102.346 68.488C102.506 68.52 102.778 68.536 103.162 68.536V69H99.4979V68.536C99.8499 68.536 100.101 68.5147 100.25 68.472C100.399 68.4293 100.49 68.3547 100.522 68.248C100.565 68.1413 100.586 67.9493 100.586 67.672V62.904C100.586 62.6267 100.554 62.4453 100.49 62.36C100.426 62.264 100.303 62.216 100.122 62.216H99.5779V61.736L101.466 61.416H101.914V62.92H101.93C102.165 62.472 102.431 62.0933 102.73 61.784C103.029 61.4747 103.418 61.32 103.898 61.32ZM113.355 68.536V69H111.115L111.003 68.232C110.661 68.5093 110.299 68.7387 109.915 68.92C109.531 69.1013 109.077 69.192 108.555 69.192C107.616 69.192 106.896 68.8667 106.395 68.216C105.904 67.5653 105.659 66.6213 105.659 65.384C105.659 64.008 105.957 62.9893 106.555 62.328C107.152 61.6667 107.984 61.336 109.051 61.336C109.744 61.336 110.363 61.544 110.907 61.96V61.896H110.955V59.464C110.955 59.176 110.923 58.984 110.859 58.888C110.795 58.792 110.667 58.744 110.475 58.744H109.899V58.28L111.867 57.928H112.299V67.784C112.299 68.0827 112.341 68.2853 112.427 68.392C112.523 68.488 112.693 68.536 112.939 68.536H113.355ZM107.163 65.192C107.163 67.4107 107.813 68.52 109.115 68.52C109.467 68.52 109.781 68.44 110.059 68.28C110.336 68.12 110.635 67.896 110.955 67.608V62.648C110.432 62.104 109.856 61.832 109.227 61.832C108.544 61.832 108.027 62.0987 107.675 62.632C107.333 63.1653 107.163 64.0187 107.163 65.192ZM120.876 65.32H115.788C115.809 66.312 115.985 67.096 116.316 67.672C116.657 68.248 117.254 68.536 118.108 68.536C118.726 68.536 119.217 68.376 119.58 68.056C119.942 67.736 120.209 67.3253 120.38 66.824L120.828 67.016C120.604 67.6667 120.257 68.1893 119.788 68.584C119.318 68.9787 118.62 69.176 117.692 69.176C116.55 69.176 115.697 68.8453 115.132 68.184C114.577 67.5227 114.3 66.5733 114.3 65.336C114.3 64.0667 114.588 63.0853 115.164 62.392C115.74 61.688 116.588 61.336 117.708 61.336C119.82 61.336 120.876 62.616 120.876 65.176V65.32ZM119.388 64.808C119.388 63.7947 119.265 63.048 119.02 62.568C118.774 62.0773 118.342 61.832 117.724 61.832C117.094 61.832 116.625 62.0827 116.316 62.584C116.006 63.0747 115.83 63.816 115.788 64.808H119.388ZM126.585 61.32C126.969 61.32 127.263 61.432 127.465 61.656C127.679 61.88 127.785 62.1893 127.785 62.584C127.785 62.904 127.711 63.1547 127.561 63.336C127.412 63.5173 127.183 63.608 126.873 63.608C126.607 63.608 126.399 63.5387 126.249 63.4C126.111 63.2613 126.041 63.08 126.041 62.856C126.041 62.728 126.063 62.6213 126.105 62.536C126.148 62.4507 126.212 62.36 126.297 62.264C126.383 62.168 126.425 62.0933 126.425 62.04C126.425 61.944 126.356 61.896 126.217 61.896C126.015 61.896 125.796 61.9973 125.561 62.2C125.337 62.4027 125.14 62.68 124.969 63.032C124.799 63.3733 124.692 63.7467 124.649 64.152V67.672C124.649 67.9493 124.671 68.1467 124.713 68.264C124.767 68.3707 124.873 68.4453 125.033 68.488C125.193 68.52 125.465 68.536 125.849 68.536V69H122.185V68.536C122.537 68.536 122.788 68.5147 122.937 68.472C123.087 68.4293 123.177 68.3547 123.209 68.248C123.252 68.1413 123.273 67.9493 123.273 67.672V62.904C123.273 62.6267 123.241 62.4453 123.177 62.36C123.113 62.264 122.991 62.216 122.809 62.216H122.265V61.736L124.153 61.416H124.601V62.92H124.617C124.852 62.472 125.119 62.0933 125.417 61.784C125.716 61.4747 126.105 61.32 126.585 61.32ZM135.366 67.672C135.366 67.9387 135.387 68.1307 135.43 68.248C135.472 68.3547 135.568 68.4293 135.718 68.472C135.867 68.5147 136.112 68.536 136.454 68.536V69H134.038V67.88H133.99V67.848C133.296 68.744 132.432 69.192 131.398 69.192C129.979 69.192 129.27 68.4293 129.27 66.904V62.872C129.27 62.5947 129.238 62.408 129.174 62.312C129.11 62.216 128.982 62.168 128.79 62.168H128.246V61.704L130.182 61.416H130.63V66.648C130.63 67.1813 130.747 67.608 130.982 67.928C131.227 68.248 131.6 68.408 132.102 68.408C132.795 68.408 133.424 68.0027 133.99 67.192L134.006 62.872C134.006 62.5947 133.974 62.408 133.91 62.312C133.846 62.216 133.718 62.168 133.526 62.168H132.982V61.704L134.918 61.416H135.366V67.672ZM144.51 67.672C144.51 67.9387 144.531 68.1307 144.574 68.248C144.617 68.3547 144.713 68.4293 144.862 68.472C145.011 68.5147 145.262 68.536 145.614 68.536V69H142.11V68.536C142.451 68.536 142.691 68.52 142.83 68.488C142.969 68.4453 143.059 68.3707 143.102 68.264C143.145 68.1573 143.166 67.9707 143.166 67.704V63.816C143.166 63.304 143.043 62.8933 142.798 62.584C142.563 62.264 142.19 62.104 141.678 62.104C141.262 62.104 140.91 62.2053 140.622 62.408C140.334 62.6 140.057 62.8773 139.79 63.24V67.704C139.79 67.9707 139.811 68.1627 139.854 68.28C139.897 68.3867 139.987 68.456 140.126 68.488C140.265 68.52 140.499 68.536 140.83 68.536V69H137.326V68.536C137.678 68.536 137.929 68.5147 138.078 68.472C138.227 68.4293 138.318 68.3547 138.35 68.248C138.393 68.1413 138.414 67.9493 138.414 67.672V62.904C138.414 62.6267 138.382 62.4453 138.318 62.36C138.254 62.264 138.131 62.216 137.95 62.216H137.406V61.736L139.294 61.416H139.742V62.6H139.758C140.121 62.1733 140.51 61.8587 140.926 61.656C141.342 61.4427 141.817 61.336 142.35 61.336C143.79 61.336 144.51 62.104 144.51 63.64V67.672ZM153.208 61.336C153.55 61.336 153.827 61.432 154.04 61.624C154.264 61.816 154.376 62.0613 154.376 62.36C154.376 62.584 154.318 62.7653 154.2 62.904C154.083 63.0427 153.923 63.112 153.72 63.112C153.528 63.112 153.374 63.0587 153.256 62.952C153.139 62.8453 153.08 62.7173 153.08 62.568C153.08 62.4933 153.091 62.4187 153.112 62.344C153.134 62.2693 153.144 62.2107 153.144 62.168C153.144 62.104 153.112 62.0453 153.048 61.992C152.984 61.9387 152.904 61.912 152.808 61.912C152.616 61.912 152.398 62.0773 152.152 62.408C152.44 62.8027 152.584 63.2827 152.584 63.848C152.584 64.7013 152.291 65.3307 151.704 65.736C151.128 66.1307 150.414 66.328 149.56 66.328C149.176 66.328 148.819 66.2907 148.488 66.216C147.976 66.4933 147.72 66.792 147.72 67.112C147.72 67.304 147.827 67.464 148.04 67.592C148.264 67.72 148.638 67.784 149.16 67.784H150.312C151.315 67.784 152.046 67.9547 152.504 68.296C152.974 68.6373 153.208 69.144 153.208 69.816C153.208 70.68 152.862 71.3253 152.168 71.752C151.475 72.1787 150.584 72.392 149.496 72.392C148.526 72.392 147.736 72.2267 147.128 71.896C146.531 71.5653 146.232 71.0693 146.232 70.408C146.232 70.0453 146.339 69.736 146.552 69.48C146.766 69.2347 147.118 69.016 147.608 68.824C147.288 68.7173 147.038 68.5573 146.856 68.344C146.675 68.12 146.584 67.8747 146.584 67.608C146.584 67.32 146.702 67.0427 146.936 66.776C147.171 66.5093 147.512 66.264 147.96 66.04C147.011 65.6347 146.536 64.9093 146.536 63.864C146.536 63.0107 146.835 62.376 147.432 61.96C148.04 61.544 148.76 61.336 149.592 61.336C150.04 61.336 150.462 61.4 150.856 61.528C151.251 61.6453 151.587 61.8267 151.864 62.072C152.238 61.5813 152.686 61.336 153.208 61.336ZM149.528 65.816C150.126 65.816 150.547 65.6453 150.792 65.304C151.048 64.9627 151.176 64.4507 151.176 63.768C151.176 63.16 151.054 62.6907 150.808 62.36C150.574 62.0293 150.174 61.864 149.608 61.864C149.032 61.864 148.622 62.04 148.376 62.392C148.131 62.7333 148.008 63.2293 148.008 63.88C148.008 64.488 148.12 64.9627 148.344 65.304C148.579 65.6453 148.974 65.816 149.528 65.816ZM148.456 68.952C148.104 69.0907 147.854 69.2773 147.704 69.512C147.566 69.7573 147.496 70.0133 147.496 70.28C147.496 70.7707 147.694 71.16 148.088 71.448C148.494 71.7467 149.027 71.896 149.688 71.896C150.382 71.896 150.942 71.7413 151.368 71.432C151.795 71.1333 152.008 70.7067 152.008 70.152C152.008 69.736 151.854 69.432 151.544 69.24C151.235 69.048 150.707 68.952 149.96 68.952H148.456ZM167.011 68.536V69H164.771L164.659 68.232C164.318 68.5093 163.955 68.7387 163.571 68.92C163.187 69.1013 162.734 69.192 162.211 69.192C161.272 69.192 160.552 68.8667 160.051 68.216C159.56 67.5653 159.315 66.6213 159.315 65.384C159.315 64.008 159.614 62.9893 160.211 62.328C160.808 61.6667 161.64 61.336 162.707 61.336C163.4 61.336 164.019 61.544 164.563 61.96V61.896H164.611V59.464C164.611 59.176 164.579 58.984 164.515 58.888C164.451 58.792 164.323 58.744 164.131 58.744H163.555V58.28L165.523 57.928H165.955V67.784C165.955 68.0827 165.998 68.2853 166.083 68.392C166.179 68.488 166.35 68.536 166.595 68.536H167.011ZM160.819 65.192C160.819 67.4107 161.47 68.52 162.771 68.52C163.123 68.52 163.438 68.44 163.715 68.28C163.992 68.12 164.291 67.896 164.611 67.608V62.648C164.088 62.104 163.512 61.832 162.883 61.832C162.2 61.832 161.683 62.0987 161.331 62.632C160.99 63.1653 160.819 64.0187 160.819 65.192ZM174.532 65.32H169.444C169.465 66.312 169.641 67.096 169.972 67.672C170.313 68.248 170.911 68.536 171.764 68.536C172.383 68.536 172.873 68.376 173.236 68.056C173.599 67.736 173.865 67.3253 174.036 66.824L174.484 67.016C174.26 67.6667 173.913 68.1893 173.444 68.584C172.975 68.9787 172.276 69.176 171.348 69.176C170.207 69.176 169.353 68.8453 168.788 68.184C168.233 67.5227 167.956 66.5733 167.956 65.336C167.956 64.0667 168.244 63.0853 168.82 62.392C169.396 61.688 170.244 61.336 171.364 61.336C173.476 61.336 174.532 62.616 174.532 65.176V65.32ZM173.044 64.808C173.044 63.7947 172.921 63.048 172.676 62.568C172.431 62.0773 171.999 61.832 171.38 61.832C170.751 61.832 170.281 62.0827 169.972 62.584C169.663 63.0747 169.487 63.816 169.444 64.808H173.044ZM180.242 61.32C180.626 61.32 180.919 61.432 181.122 61.656C181.335 61.88 181.442 62.1893 181.442 62.584C181.442 62.904 181.367 63.1547 181.218 63.336C181.068 63.5173 180.839 63.608 180.53 63.608C180.263 63.608 180.055 63.5387 179.906 63.4C179.767 63.2613 179.698 63.08 179.698 62.856C179.698 62.728 179.719 62.6213 179.762 62.536C179.804 62.4507 179.868 62.36 179.954 62.264C180.039 62.168 180.082 62.0933 180.082 62.04C180.082 61.944 180.012 61.896 179.874 61.896C179.671 61.896 179.452 61.9973 179.218 62.2C178.994 62.4027 178.796 62.68 178.626 63.032C178.455 63.3733 178.348 63.7467 178.306 64.152V67.672C178.306 67.9493 178.327 68.1467 178.37 68.264C178.423 68.3707 178.53 68.4453 178.69 68.488C178.85 68.52 179.122 68.536 179.506 68.536V69H175.842V68.536C176.194 68.536 176.444 68.5147 176.594 68.472C176.743 68.4293 176.834 68.3547 176.866 68.248C176.908 68.1413 176.93 67.9493 176.93 67.672V62.904C176.93 62.6267 176.898 62.4453 176.834 62.36C176.77 62.264 176.647 62.216 176.466 62.216H175.922V61.736L177.81 61.416H178.258V62.92H178.274C178.508 62.472 178.775 62.0933 179.074 61.784C179.372 61.4747 179.762 61.32 180.242 61.32ZM185.886 68.536C186.238 68.536 186.489 68.5147 186.638 68.472C186.788 68.4293 186.884 68.3547 186.926 68.248C186.969 68.1307 186.99 67.9387 186.99 67.672V59.416C186.99 59.1387 186.958 58.9573 186.894 58.872C186.83 58.776 186.702 58.728 186.51 58.728H185.966V58.248L187.902 57.928H188.35V67.672C188.35 67.9387 188.372 68.1307 188.414 68.248C188.457 68.3547 188.553 68.4293 188.702 68.472C188.852 68.5147 189.097 68.536 189.438 68.536V69H185.886V68.536ZM193.99 69.176C191.675 69.176 190.518 67.8693 190.518 65.256C190.518 63.9653 190.806 62.9893 191.382 62.328C191.958 61.656 192.833 61.32 194.006 61.32C196.321 61.32 197.478 62.6267 197.478 65.24C197.478 67.864 196.315 69.176 193.99 69.176ZM194.006 68.664C195.329 68.664 195.99 67.5493 195.99 65.32C195.99 62.9947 195.323 61.832 193.99 61.832C193.329 61.832 192.833 62.1253 192.502 62.712C192.171 63.288 192.006 64.136 192.006 65.256C192.006 67.528 192.673 68.664 194.006 68.664ZM206.162 68.536V69H203.058V68.536H203.298C203.554 68.536 203.682 68.4773 203.682 68.36C203.682 68.2853 203.576 68.0933 203.362 67.784L201.522 65.304L200.914 65.96V67.672C200.914 67.9387 200.936 68.1307 200.978 68.248C201.021 68.3547 201.117 68.4293 201.266 68.472C201.416 68.5147 201.661 68.536 202.002 68.536V69H198.45V68.536C198.802 68.536 199.053 68.5147 199.202 68.472C199.352 68.4293 199.448 68.3547 199.49 68.248C199.533 68.1307 199.554 67.9387 199.554 67.672V59.416C199.554 59.1387 199.522 58.9573 199.458 58.872C199.394 58.776 199.266 58.728 199.074 58.728H198.53V58.248L200.466 57.928H200.914V65.304L203.138 62.856C203.394 62.568 203.522 62.3493 203.522 62.2C203.522 62.0507 203.421 61.976 203.218 61.976H202.914V61.512H205.826V61.976H205.602C205.186 61.976 204.818 62.0773 204.498 62.28C204.178 62.4827 203.821 62.8027 203.426 63.24L202.386 64.376L204.53 67.24C204.914 67.7627 205.202 68.1093 205.394 68.28C205.597 68.4507 205.8 68.536 206.002 68.536H206.162ZM213.852 68.744C213.649 68.872 213.441 68.9733 213.228 69.048C213.014 69.1227 212.737 69.16 212.396 69.16C212.076 69.16 211.83 69.096 211.66 68.968C211.5 68.84 211.404 68.5627 211.372 68.136C210.977 68.4773 210.593 68.7387 210.22 68.92C209.846 69.0907 209.43 69.176 208.972 69.176C208.385 69.176 207.905 69.0427 207.532 68.776C207.169 68.4987 206.988 68.0987 206.988 67.576C206.988 66.8293 207.366 66.1787 208.124 65.624C208.881 65.0693 209.964 64.68 211.372 64.456V63.528C211.372 62.984 211.26 62.5787 211.036 62.312C210.822 62.0453 210.449 61.912 209.916 61.912C209.542 61.912 209.206 61.9813 208.908 62.12C208.609 62.2587 208.46 62.3973 208.46 62.536C208.46 62.6107 208.508 62.6907 208.604 62.776C208.71 62.8507 208.79 62.9307 208.844 63.016C208.908 63.0907 208.94 63.208 208.94 63.368C208.94 63.592 208.876 63.7733 208.748 63.912C208.62 64.04 208.438 64.104 208.204 64.104C207.958 64.104 207.761 64.0293 207.612 63.88C207.473 63.7307 207.404 63.5227 207.404 63.256C207.404 62.9253 207.51 62.616 207.724 62.328C207.948 62.04 208.278 61.8053 208.716 61.624C209.164 61.4427 209.708 61.352 210.348 61.352C211.158 61.352 211.756 61.5173 212.14 61.848C212.524 62.1787 212.716 62.7547 212.716 63.576V67.368C212.716 67.784 212.758 68.072 212.844 68.232C212.94 68.3813 213.089 68.456 213.292 68.456C213.42 68.456 213.569 68.4187 213.74 68.344L213.852 68.744ZM208.428 67.192C208.428 67.5653 208.534 67.848 208.748 68.04C208.961 68.2213 209.27 68.312 209.676 68.312C209.974 68.312 210.257 68.248 210.524 68.12C210.801 67.992 211.084 67.8213 211.372 67.608V64.968C210.38 65.1813 209.638 65.4693 209.148 65.832C208.668 66.184 208.428 66.6373 208.428 67.192ZM214.511 68.536C214.863 68.536 215.114 68.5147 215.263 68.472C215.413 68.4293 215.509 68.3547 215.551 68.248C215.594 68.1307 215.615 67.9387 215.615 67.672V59.416C215.615 59.1387 215.583 58.9573 215.519 58.872C215.455 58.776 215.327 58.728 215.135 58.728H214.591V58.248L216.527 57.928H216.975V67.672C216.975 67.9387 216.997 68.1307 217.039 68.248C217.082 68.3547 217.178 68.4293 217.327 68.472C217.477 68.5147 217.722 68.536 218.063 68.536V69H214.511V68.536ZM225.735 65.32H220.647C220.668 66.312 220.844 67.096 221.175 67.672C221.516 68.248 222.114 68.536 222.967 68.536C223.586 68.536 224.076 68.376 224.439 68.056C224.802 67.736 225.068 67.3253 225.239 66.824L225.687 67.016C225.463 67.6667 225.116 68.1893 224.647 68.584C224.178 68.9787 223.479 69.176 222.551 69.176C221.41 69.176 220.556 68.8453 219.991 68.184C219.436 67.5227 219.159 66.5733 219.159 65.336C219.159 64.0667 219.447 63.0853 220.023 62.392C220.599 61.688 221.447 61.336 222.567 61.336C224.679 61.336 225.735 62.616 225.735 65.176V65.32ZM224.247 64.808C224.247 63.7947 224.124 63.048 223.879 62.568C223.634 62.0773 223.202 61.832 222.583 61.832C221.954 61.832 221.484 62.0827 221.175 62.584C220.866 63.0747 220.69 63.816 220.647 64.808H224.247ZM234.229 67.672C234.229 67.9387 234.25 68.1307 234.293 68.248C234.335 68.3547 234.431 68.4293 234.581 68.472C234.73 68.5147 234.981 68.536 235.333 68.536V69H231.829V68.536C232.17 68.536 232.41 68.52 232.549 68.488C232.687 68.4453 232.778 68.3707 232.821 68.264C232.863 68.1573 232.885 67.9707 232.885 67.704V63.816C232.885 63.304 232.762 62.8933 232.517 62.584C232.282 62.264 231.909 62.104 231.397 62.104C230.981 62.104 230.629 62.2053 230.341 62.408C230.053 62.6 229.775 62.8773 229.509 63.24V67.704C229.509 67.9707 229.53 68.1627 229.573 68.28C229.615 68.3867 229.706 68.456 229.845 68.488C229.983 68.52 230.218 68.536 230.549 68.536V69H227.045V68.536C227.397 68.536 227.647 68.5147 227.797 68.472C227.946 68.4293 228.037 68.3547 228.069 68.248C228.111 68.1413 228.133 67.9493 228.133 67.672V62.904C228.133 62.6267 228.101 62.4453 228.037 62.36C227.973 62.264 227.85 62.216 227.669 62.216H227.125V61.736L229.013 61.416H229.461V62.6H229.477C229.839 62.1733 230.229 61.8587 230.645 61.656C231.061 61.4427 231.535 61.336 232.069 61.336C233.509 61.336 234.229 62.104 234.229 63.64V67.672ZM241.144 59.832C241.069 59.5547 240.989 59.352 240.904 59.224C240.829 59.096 240.717 59.0107 240.568 58.968C240.429 58.9253 240.21 58.904 239.912 58.904V58.44H243.512V58.904H242.84C242.712 58.904 242.616 58.9253 242.552 58.968C242.488 59 242.456 59.064 242.456 59.16C242.456 59.192 242.477 59.304 242.52 59.496L244.536 67.032H244.584L246.808 58.696H247.688L250.12 67.048H250.184L252.056 59.544C252.088 59.416 252.104 59.304 252.104 59.208C252.104 59.1013 252.077 59.0267 252.024 58.984C251.97 58.9307 251.874 58.904 251.736 58.904H251V58.44H254.136V58.904C253.816 58.904 253.57 58.936 253.4 59C253.24 59.064 253.112 59.176 253.016 59.336C252.92 59.4853 252.818 59.72 252.712 60.04L250.216 69H249.272L246.872 60.84H246.84L244.6 69H243.624L241.144 59.832ZM255.929 60.008C255.673 60.008 255.459 59.928 255.289 59.768C255.129 59.5973 255.049 59.3893 255.049 59.144C255.049 58.888 255.129 58.6747 255.289 58.504C255.459 58.3333 255.673 58.248 255.929 58.248C256.195 58.248 256.409 58.3333 256.569 58.504C256.729 58.6747 256.809 58.888 256.809 59.144C256.809 59.3893 256.723 59.5973 256.553 59.768C256.393 59.928 256.185 60.008 255.929 60.008ZM254.201 68.536C254.553 68.536 254.803 68.5147 254.953 68.472C255.102 68.4293 255.193 68.3547 255.225 68.248C255.267 68.1413 255.289 67.9493 255.289 67.672V62.904C255.289 62.6267 255.257 62.4453 255.193 62.36C255.139 62.264 255.017 62.216 254.825 62.216H254.281V61.736L256.217 61.416H256.665V67.672C256.665 67.9493 256.686 68.1467 256.729 68.264C256.771 68.3707 256.862 68.4453 257.001 68.488C257.15 68.52 257.401 68.536 257.753 68.536V69H254.201V68.536ZM263.351 61.32C263.735 61.32 264.028 61.432 264.231 61.656C264.444 61.88 264.551 62.1893 264.551 62.584C264.551 62.904 264.476 63.1547 264.327 63.336C264.178 63.5173 263.948 63.608 263.639 63.608C263.372 63.608 263.164 63.5387 263.015 63.4C262.876 63.2613 262.807 63.08 262.807 62.856C262.807 62.728 262.828 62.6213 262.871 62.536C262.914 62.4507 262.978 62.36 263.063 62.264C263.148 62.168 263.191 62.0933 263.191 62.04C263.191 61.944 263.122 61.896 262.983 61.896C262.78 61.896 262.562 61.9973 262.327 62.2C262.103 62.4027 261.906 62.68 261.735 63.032C261.564 63.3733 261.458 63.7467 261.415 64.152V67.672C261.415 67.9493 261.436 68.1467 261.479 68.264C261.532 68.3707 261.639 68.4453 261.799 68.488C261.959 68.52 262.231 68.536 262.615 68.536V69H258.951V68.536C259.303 68.536 259.554 68.5147 259.703 68.472C259.852 68.4293 259.943 68.3547 259.975 68.248C260.018 68.1413 260.039 67.9493 260.039 67.672V62.904C260.039 62.6267 260.007 62.4453 259.943 62.36C259.879 62.264 259.756 62.216 259.575 62.216H259.031V61.736L260.919 61.416H261.367V62.92H261.383C261.618 62.472 261.884 62.0933 262.183 61.784C262.482 61.4747 262.871 61.32 263.351 61.32ZM267.443 69.176C267.006 69.176 266.633 69.048 266.323 68.792C266.025 68.536 265.875 68.104 265.875 67.496V62.024H264.707V61.544C265.817 61.4267 266.505 60.6053 266.771 59.08H267.235V61.512H269.011V62.024H267.235V67.256C267.235 67.6933 267.299 68.008 267.427 68.2C267.566 68.3813 267.769 68.472 268.035 68.472C268.206 68.472 268.382 68.4347 268.563 68.36C268.745 68.2747 268.899 68.184 269.027 68.088L269.203 68.472C268.883 68.7067 268.601 68.8827 268.355 69C268.121 69.1173 267.817 69.176 267.443 69.176ZM273.007 69.176C272.708 69.176 272.452 69.1493 272.239 69.096C272.036 69.0427 271.828 68.9733 271.615 68.888C271.37 68.792 271.183 68.744 271.055 68.744C270.948 68.744 270.863 68.7707 270.799 68.824C270.746 68.8667 270.692 68.9413 270.639 69.048H270.335L270.175 66.408H270.495C270.698 67.1547 271.007 67.72 271.423 68.104C271.839 68.4773 272.335 68.664 272.911 68.664C273.38 68.664 273.754 68.552 274.031 68.328C274.319 68.0933 274.463 67.768 274.463 67.352C274.463 67.0533 274.383 66.808 274.223 66.616C274.063 66.4133 273.871 66.2533 273.647 66.136C273.423 66.0187 273.092 65.8747 272.655 65.704L272.255 65.56C271.604 65.2933 271.124 65.016 270.815 64.728C270.516 64.4293 270.367 64.024 270.367 63.512C270.367 62.84 270.602 62.312 271.071 61.928C271.551 61.5333 272.18 61.336 272.959 61.336C273.215 61.336 273.423 61.352 273.583 61.384C273.743 61.416 273.924 61.464 274.127 61.528C274.34 61.592 274.479 61.624 274.543 61.624C274.65 61.624 274.724 61.6027 274.767 61.56C274.81 61.5067 274.836 61.4587 274.847 61.416C274.868 61.3733 274.879 61.3467 274.879 61.336H275.167L275.279 63.688H274.959C274.671 62.4507 274.031 61.832 273.039 61.832C272.602 61.832 272.239 61.9387 271.951 62.152C271.674 62.3653 271.535 62.6427 271.535 62.984C271.535 63.3253 271.668 63.6133 271.935 63.848C272.212 64.072 272.543 64.2533 272.927 64.392L273.359 64.536C274.159 64.8133 274.746 65.1227 275.119 65.464C275.503 65.8053 275.695 66.2693 275.695 66.856C275.695 67.5493 275.444 68.1093 274.943 68.536C274.442 68.9627 273.796 69.176 273.007 69.176ZM280.694 69.176C279.574 69.176 278.715 68.8347 278.118 68.152C277.52 67.4587 277.222 66.5147 277.222 65.32C277.222 64.1253 277.52 63.1653 278.118 62.44C278.726 61.704 279.627 61.336 280.822 61.336C281.6 61.336 282.24 61.4907 282.742 61.8C283.243 62.1093 283.494 62.536 283.494 63.08C283.494 63.3573 283.424 63.576 283.286 63.736C283.147 63.896 282.944 63.976 282.678 63.976C282.411 63.976 282.208 63.9067 282.07 63.768C281.931 63.6187 281.862 63.4267 281.862 63.192C281.862 63.064 281.878 62.9573 281.91 62.872C281.952 62.7867 282.011 62.696 282.086 62.6C282.16 62.4933 282.198 62.4027 282.198 62.328C282.198 62.1893 282.086 62.072 281.862 61.976C281.648 61.88 281.371 61.832 281.03 61.832C280.304 61.832 279.739 62.0827 279.334 62.584C278.928 63.0853 278.726 63.9387 278.726 65.144C278.726 67.4053 279.494 68.536 281.03 68.536C282.054 68.536 282.779 68.0613 283.206 67.112L283.59 67.336C283.451 67.7733 283.158 68.1893 282.71 68.584C282.262 68.9787 281.59 69.176 280.694 69.176ZM291.804 67.672C291.804 67.9387 291.825 68.1307 291.868 68.248C291.911 68.3547 292.007 68.4293 292.156 68.472C292.305 68.5147 292.556 68.536 292.908 68.536V69H289.404V68.536C289.735 68.536 289.969 68.5147 290.108 68.472C290.257 68.4293 290.353 68.3547 290.396 68.248C290.439 68.1413 290.46 67.96 290.46 67.704V63.816C290.46 63.304 290.337 62.8933 290.092 62.584C289.857 62.264 289.479 62.104 288.956 62.104C288.561 62.104 288.209 62.2053 287.9 62.408C287.601 62.6107 287.324 62.904 287.068 63.288V67.704C287.068 67.96 287.089 68.1413 287.132 68.248C287.175 68.3547 287.265 68.4293 287.404 68.472C287.553 68.5147 287.793 68.536 288.124 68.536V69H284.62V68.536C284.972 68.536 285.223 68.5147 285.372 68.472C285.521 68.4293 285.612 68.3547 285.644 68.248C285.687 68.1413 285.708 67.9493 285.708 67.672V59.416C285.708 59.1387 285.676 58.9573 285.612 58.872C285.548 58.776 285.425 58.728 285.244 58.728H284.7V58.248L286.62 57.928H287.068V62.536H287.116C287.457 62.1307 287.831 61.832 288.236 61.64C288.641 61.4373 289.111 61.336 289.644 61.336C291.084 61.336 291.804 62.104 291.804 63.64V67.672ZM300.758 68.744C300.555 68.872 300.347 68.9733 300.134 69.048C299.92 69.1227 299.643 69.16 299.302 69.16C298.982 69.16 298.736 69.096 298.566 68.968C298.406 68.84 298.31 68.5627 298.278 68.136C297.883 68.4773 297.499 68.7387 297.126 68.92C296.752 69.0907 296.336 69.176 295.878 69.176C295.291 69.176 294.811 69.0427 294.438 68.776C294.075 68.4987 293.894 68.0987 293.894 67.576C293.894 66.8293 294.272 66.1787 295.03 65.624C295.787 65.0693 296.87 64.68 298.278 64.456V63.528C298.278 62.984 298.166 62.5787 297.942 62.312C297.728 62.0453 297.355 61.912 296.822 61.912C296.448 61.912 296.112 61.9813 295.814 62.12C295.515 62.2587 295.366 62.3973 295.366 62.536C295.366 62.6107 295.414 62.6907 295.51 62.776C295.616 62.8507 295.696 62.9307 295.75 63.016C295.814 63.0907 295.846 63.208 295.846 63.368C295.846 63.592 295.782 63.7733 295.654 63.912C295.526 64.04 295.344 64.104 295.11 64.104C294.864 64.104 294.667 64.0293 294.518 63.88C294.379 63.7307 294.31 63.5227 294.31 63.256C294.31 62.9253 294.416 62.616 294.63 62.328C294.854 62.04 295.184 61.8053 295.622 61.624C296.07 61.4427 296.614 61.352 297.254 61.352C298.064 61.352 298.662 61.5173 299.046 61.848C299.43 62.1787 299.622 62.7547 299.622 63.576V67.368C299.622 67.784 299.664 68.072 299.75 68.232C299.846 68.3813 299.995 68.456 300.198 68.456C300.326 68.456 300.475 68.4187 300.646 68.344L300.758 68.744ZM295.334 67.192C295.334 67.5653 295.44 67.848 295.654 68.04C295.867 68.2213 296.176 68.312 296.582 68.312C296.88 68.312 297.163 68.248 297.43 68.12C297.707 67.992 297.99 67.8213 298.278 67.608V64.968C297.286 65.1813 296.544 65.4693 296.054 65.832C295.574 66.184 295.334 66.6373 295.334 67.192ZM301.498 68.536C301.85 68.536 302.1 68.5147 302.25 68.472C302.399 68.4293 302.495 68.3547 302.538 68.248C302.58 68.1307 302.602 67.9387 302.602 67.672V62.072H301.482V61.512H302.602V60.488C302.602 59.6347 302.799 58.9627 303.194 58.472C303.599 57.9707 304.202 57.72 305.002 57.72C305.61 57.72 306.068 57.8533 306.378 58.12C306.698 58.3867 306.858 58.7227 306.858 59.128C306.858 59.3627 306.788 59.5547 306.65 59.704C306.522 59.8533 306.346 59.928 306.122 59.928C305.898 59.928 305.716 59.8693 305.578 59.752C305.45 59.624 305.386 59.448 305.386 59.224C305.386 59.064 305.434 58.92 305.53 58.792C305.626 58.664 305.674 58.568 305.674 58.504C305.674 58.4187 305.615 58.3493 305.498 58.296C305.38 58.232 305.242 58.2 305.082 58.2C304.73 58.2 304.452 58.3387 304.25 58.616C304.058 58.8933 303.962 59.304 303.962 59.848V61.512H305.754V62.072H303.962V67.688C303.962 67.9653 303.988 68.1573 304.042 68.264C304.095 68.3707 304.212 68.4453 304.394 68.488C304.575 68.52 304.89 68.536 305.338 68.536V69H301.498V68.536ZM308.787 69.176C308.35 69.176 307.976 69.048 307.667 68.792C307.368 68.536 307.219 68.104 307.219 67.496V62.024H306.051V61.544C307.16 61.4267 307.848 60.6053 308.115 59.08H308.579V61.512H310.355V62.024H308.579V67.256C308.579 67.6933 308.643 68.008 308.771 68.2C308.91 68.3813 309.112 68.472 309.379 68.472C309.55 68.472 309.726 68.4347 309.907 68.36C310.088 68.2747 310.243 68.184 310.371 68.088L310.547 68.472C310.227 68.7067 309.944 68.8827 309.699 69C309.464 69.1173 309.16 69.176 308.787 69.176ZM318.079 65.32H312.991C313.012 66.312 313.188 67.096 313.519 67.672C313.86 68.248 314.457 68.536 315.311 68.536C315.929 68.536 316.42 68.376 316.783 68.056C317.145 67.736 317.412 67.3253 317.583 66.824L318.031 67.016C317.807 67.6667 317.46 68.1893 316.991 68.584C316.521 68.9787 315.823 69.176 314.895 69.176C313.753 69.176 312.9 68.8453 312.335 68.184C311.78 67.5227 311.503 66.5733 311.503 65.336C311.503 64.0667 311.791 63.0853 312.367 62.392C312.943 61.688 313.791 61.336 314.911 61.336C317.023 61.336 318.079 62.616 318.079 65.176V65.32ZM316.591 64.808C316.591 63.7947 316.468 63.048 316.223 62.568C315.977 62.0773 315.545 61.832 314.927 61.832C314.297 61.832 313.828 62.0827 313.519 62.584C313.209 63.0747 313.033 63.816 312.991 64.808H316.591ZM326.573 67.672C326.573 67.9387 326.594 68.1307 326.637 68.248C326.679 68.3547 326.775 68.4293 326.925 68.472C327.074 68.5147 327.325 68.536 327.677 68.536V69H324.173V68.536C324.514 68.536 324.754 68.52 324.893 68.488C325.031 68.4453 325.122 68.3707 325.165 68.264C325.207 68.1573 325.229 67.9707 325.229 67.704V63.816C325.229 63.304 325.106 62.8933 324.861 62.584C324.626 62.264 324.253 62.104 323.741 62.104C323.325 62.104 322.973 62.2053 322.685 62.408C322.397 62.6 322.119 62.8773 321.853 63.24V67.704C321.853 67.9707 321.874 68.1627 321.917 68.28C321.959 68.3867 322.05 68.456 322.189 68.488C322.327 68.52 322.562 68.536 322.893 68.536V69H319.389V68.536C319.741 68.536 319.991 68.5147 320.141 68.472C320.29 68.4293 320.381 68.3547 320.413 68.248C320.455 68.1413 320.477 67.9493 320.477 67.672V62.904C320.477 62.6267 320.445 62.4453 320.381 62.36C320.317 62.264 320.194 62.216 320.013 62.216H319.469V61.736L321.357 61.416H321.805V62.6H321.821C322.183 62.1733 322.573 61.8587 322.989 61.656C323.405 61.4427 323.879 61.336 324.413 61.336C325.853 61.336 326.573 62.104 326.573 63.64V67.672Z" fill="white"/>
<path d="M34.5231 23.5479H20L24.2041 0H31.4656L28.3317 17.5196H35.5932L34.5231 23.5479Z" fill="white"/>
<path d="M57.3423 15.4474H51.6478L51.1891 18.0094H58.2596L57.2659 23.5479H43.7747L47.2908 3.61695H60.7438L58.9475 9.26845H52.7179L52.2593 11.8305H57.9921L57.3423 15.4474Z" fill="white"/>
<path d="M68.8557 23.5479L72.3718 3.61695H79.0983L75.544 23.5479H68.8557Z" fill="white"/>
<path d="M104.715 9.53218C102.982 9.1303 101.504 8.92936 100.281 8.92936C99.0583 8.92936 98.1538 8.96703 97.5678 9.04239L97.3767 10.135L99.2877 10.3611C103.39 10.8885 105.441 12.5589 105.441 15.3721C105.441 15.6986 105.364 16.314 105.212 17.2182C105.059 18.0973 104.804 18.9513 104.447 19.7802C104.09 20.6091 103.632 21.2873 103.071 21.8148C102.536 22.3171 102.001 22.7316 101.466 23.0581C100.957 23.3595 100.294 23.573 99.4787 23.6986C98.2048 23.8995 96.4977 24 94.3574 24C92.2427 24 90.1024 23.7111 87.9367 23.1334L89.8094 17.5573C91.7968 18.1099 93.5294 18.3862 95.0072 18.3862C96.5104 18.3862 97.5678 18.3485 98.1793 18.2732L98.3704 17.0675L95.9626 16.8038C93.8988 16.5777 92.4338 16.1005 91.5675 15.3721C90.7012 14.6436 90.268 13.6013 90.268 12.2449C90.268 11.7425 90.3317 11.1146 90.4591 10.3611C90.9687 7.67347 91.886 5.81476 93.2109 4.78493C94.5358 3.7551 96.5486 3.24019 99.2494 3.24019C101.976 3.24019 104.409 3.50392 106.549 4.0314L104.715 9.53218Z" fill="white"/>
<path d="M131.153 9.26845H127.026L124.503 23.5479H117.777L120.299 9.26845H116.057L117.089 3.61695H132.185L131.153 9.26845Z" fill="white"/>
<path d="M148.01 18.2732C148.698 18.2732 149.169 18.1978 149.424 18.0471C149.704 17.8713 149.895 17.4694 149.997 16.8414L152.405 3.61695H158.826L156.838 14.8446C156.227 18.3611 155.233 20.7724 153.857 22.0785C152.507 23.3595 150.188 24 146.901 24C144.277 24 142.442 23.6232 141.398 22.8697C140.353 22.0911 139.831 20.7473 139.831 18.8383C139.831 17.7834 139.971 16.4521 140.251 14.8446L142.277 3.61695H148.698L146.099 18.2732H148.01Z" fill="white"/>
<path d="M178.415 23.5479L174.478 16.0879H174.326L172.988 23.5479H166.567L170.083 3.61695H175.281L179.256 11.0392H179.485L180.785 3.61695H187.167L183.613 23.5479H178.415Z" fill="white"/>
<path d="M211.266 22.4929C208.667 23.4976 206.017 24 203.317 24C200.616 24 198.692 23.4851 197.545 22.4553C196.399 21.4003 195.826 19.7802 195.826 17.595C195.826 16.5149 196.004 14.9702 196.361 12.9608C196.717 10.9513 197.265 9.23077 198.004 7.79906C199.609 4.75981 202.858 3.24019 207.75 3.24019C210.604 3.24019 212.591 3.51648 213.712 4.06907L211.763 9.30612C210.158 8.95447 208.705 8.77865 207.406 8.77865C206.132 8.77865 205.227 8.86656 204.692 9.04239C204.157 9.21821 203.839 9.5573 203.737 10.0597L202.132 18.7253H203.89C204.527 18.7253 205.011 18.6625 205.342 18.5369C205.699 18.3862 205.915 18.0722 205.992 17.595L206.259 16.1256H204.692L205.457 11.8305H213.177L211.266 22.4929Z" fill="white"/>
<path d="M239.712 9.53218C237.979 9.1303 236.501 8.92936 235.278 8.92936C234.055 8.92936 233.151 8.96703 232.565 9.04239L232.374 10.135L234.285 10.3611C238.387 10.8885 240.438 12.5589 240.438 15.3721C240.438 15.6986 240.361 16.314 240.209 17.2182C240.056 18.0973 239.801 18.9513 239.444 19.7802C239.088 20.6091 238.629 21.2873 238.068 21.8148C237.533 22.3171 236.998 22.7316 236.463 23.0581C235.954 23.3595 235.291 23.573 234.476 23.6986C233.202 23.8995 231.495 24 229.354 24C227.24 24 225.099 23.7111 222.934 23.1334L224.806 17.5573C226.794 18.1099 228.526 18.3862 230.004 18.3862C231.507 18.3862 232.565 18.3485 233.176 18.2732L233.367 17.0675L230.96 16.8038C228.896 16.5777 227.431 16.1005 226.565 15.3721C225.698 14.6436 225.265 13.6013 225.265 12.2449C225.265 11.7425 225.329 11.1146 225.456 10.3611C225.966 7.67347 226.883 5.81476 228.208 4.78493C229.533 3.7551 231.546 3.24019 234.246 3.24019C236.973 3.24019 239.406 3.50392 241.546 4.0314L239.712 9.53218Z" fill="white"/>
<path d="M266.15 9.26845H262.023L259.5 23.5479H252.774L255.296 9.26845H251.054L252.086 3.61695H267.182L266.15 9.26845Z" fill="white"/>
<path d="M284.572 23.5479L284.419 20.4961H279.604L278.419 23.5479H271.807L280.292 3.61695H289.77L291.26 23.5479H284.572ZM284.419 15.1083V9.38148H283.884L281.629 15.1083H284.419Z" fill="white"/>
<path d="M316.554 22.4929C313.955 23.4976 311.305 24 308.605 24C305.904 24 303.98 23.4851 302.833 22.4553C301.687 21.4003 301.114 19.7802 301.114 17.595C301.114 16.5149 301.292 14.9702 301.649 12.9608C302.005 10.9513 302.553 9.23077 303.292 7.79906C304.897 4.75981 308.146 3.24019 313.038 3.24019C315.892 3.24019 317.879 3.51648 319 4.06907L317.051 9.30612C315.446 8.95447 313.993 8.77865 312.694 8.77865C311.42 8.77865 310.515 8.86656 309.98 9.04239C309.445 9.21821 309.127 9.5573 309.025 10.0597L307.42 18.7253H309.178C309.815 18.7253 310.299 18.6625 310.63 18.5369C310.987 18.3862 311.203 18.0722 311.28 17.595L311.547 16.1256H309.98L310.745 11.8305H318.465L316.554 22.4929Z" fill="white"/>
<path d="M166.5 33L151.364 40L166.5 47L181.636 40L166.5 33Z" fill="white"/>
<path d="M112.255 38.0556L0 40L112.255 41.9444L133.982 43.8889L151.364 40L133.982 36.1111L112.255 38.0556Z" fill="white"/>
<path d="M220.745 41.9444L333 40L220.745 38.0556L199.018 36.1111L181.636 40L199.018 43.8889L220.745 41.9444Z" fill="white"/>
</svg>
