<svg width="250" height="218" viewBox="0 0 250 218" fill="none" xmlns="http://www.w3.org/2000/svg">
<path d="M94.2551 73.537L97.7906 77.0725L97.7906 77.0725L94.2551 73.537ZM102.486 75.3526L107.18 73.6327L107.18 73.6327L102.486 75.3526ZM136.792 169L132.097 170.72L134.784 178.054L140.32 172.544L136.792 169ZM248.292 58.0001L192.491 72.8176L233.224 113.734L248.292 58.0001ZM16.3276 158.535L97.7906 77.0725L90.7196 70.0014L9.25649 151.464L16.3276 158.535ZM97.7906 77.0725L132.097 170.72L141.487 167.28L107.18 73.6327L97.7906 77.0725ZM140.32 172.544L219.928 93.2918L212.873 86.2048L133.264 165.457L140.32 172.544ZM97.7906 77.0725L97.7906 77.0725L107.18 73.6327C104.667 66.7727 95.8856 64.8354 90.7196 70.0014L97.7906 77.0725Z" fill="white"/>
<path d="M193.883 158.745L193.883 158.745C193.965 160.393 192.761 161.822 191.126 162.032L144.129 168.075C142.494 168.286 140.968 167.207 140.63 165.592L124.941 90.5003C124.76 89.6381 124.95 88.7407 125.462 88.024C125.974 87.3078 126.761 86.8375 127.635 86.7252L186.505 79.1558C187.378 79.0435 188.259 79.2993 188.936 79.8629C189.612 80.4266 190.022 81.2468 190.066 82.1263L190.066 82.1266L193.883 158.745Z" fill="black" stroke="black" stroke-width="2"/>
<path d="M48.1457 130.766L48.1457 130.766C47.7688 132.373 48.6962 133.995 50.2666 134.496L95.413 148.887C96.9835 149.387 98.6788 148.601 99.3011 147.072L128.231 76.0232C128.563 75.2074 128.538 74.2906 128.163 73.4936C127.788 72.697 127.098 72.0928 126.259 71.8254L69.7078 53.799C68.869 53.5316 67.9563 53.6248 67.1895 54.0577C66.4227 54.4907 65.8718 55.2238 65.6704 56.0811L65.6703 56.0813L48.1457 130.766Z" fill="black" stroke="black" stroke-width="2"/>
<path d="M49.1193 130.994C48.8622 132.09 49.4943 133.2 50.5703 133.543L95.7167 147.934C96.7928 148.277 97.9506 147.737 98.3749 146.695L127.305 75.6461C127.531 75.0897 127.514 74.464 127.258 73.9194C127.002 73.3748 126.53 72.9612 125.955 72.7781L69.4041 54.7517C68.8297 54.5686 68.2052 54.6327 67.6811 54.9285C67.1571 55.2244 66.7813 55.7249 66.6439 56.3097L49.1193 130.994ZM122.418 76.1746L112.949 99.4309C112.022 98.4309 110.813 97.3266 109.284 96.2892C105.397 93.6519 98.5636 90.9029 88.092 92.7839C80.9915 94.0593 74.6536 93.4721 69.9192 90.8028C66.3714 88.8026 64.3512 86.0872 64.1506 85.8738L70.3231 59.5686L122.418 76.1746Z" fill="white"/>
<path d="M192.884 158.794C192.94 159.918 192.119 160.897 190.999 161.041L144.001 167.084C142.881 167.228 141.839 166.489 141.609 165.387L125.919 90.2958C125.797 89.7077 125.926 89.0952 126.276 88.6056C126.626 88.1159 127.164 87.7939 127.762 87.717L186.632 80.1476C187.23 80.0707 187.833 80.246 188.295 80.6312C188.758 81.0164 189.038 81.5763 189.068 82.1763L192.884 158.794ZM130.631 91.6939L135.767 116.273C136.858 115.456 138.246 114.587 139.936 113.841C144.235 111.946 151.45 110.47 161.413 114.202C168.169 116.733 174.509 117.294 179.646 115.519C183.496 114.189 185.971 111.881 186.207 111.707L184.863 84.7209L130.631 91.6939Z" fill="white"/>
</svg>
