<svg width="241" height="137" viewBox="0 0 241 137" fill="none" xmlns="http://www.w3.org/2000/svg">
<path d="M85.2551 31.5369L88.7906 35.0724L88.7906 35.0724L85.2551 31.5369ZM93.4855 33.3525L98.1803 31.6326L98.1803 31.6326L93.4855 33.3525ZM127.792 127L123.097 128.72L125.784 136.054L131.32 130.543L127.792 127ZM239.292 16L183.491 30.8176L224.224 71.734L239.292 16ZM7.32749 116.535L88.7906 35.0724L81.7195 28.0014L0.256434 109.464L7.32749 116.535ZM88.7906 35.0724L123.097 128.72L132.487 125.28L98.1803 31.6326L88.7906 35.0724ZM131.32 130.543L210.928 51.2917L203.873 44.2048L124.264 123.457L131.32 130.543ZM88.7906 35.0724L88.7906 35.0725L98.1803 31.6326C95.6673 24.7726 86.8856 22.8353 81.7195 28.0014L88.7906 35.0724Z" fill="white"/>
<path d="M174.258 100.599L174.258 100.598C174.082 99.8469 173.715 98.953 172.957 98.2227C172.183 97.4774 171.085 96.9834 169.602 96.9067C168.381 96.8435 167.123 97.0673 166.126 97.2447L166.086 97.2518L166.084 97.2522L165.989 97.2689C165.612 97.3352 165.288 97.3922 165.013 97.4272L164.896 97.442C163.367 97.6341 161.919 97.6998 160.71 97.6373C159.921 97.5965 159.374 97.5106 159.023 97.4304C158.93 97.4093 158.854 97.3894 158.794 97.3718C158.727 97.2206 158.637 97.0012 158.523 96.6968C158.305 96.1157 158.018 95.2744 157.66 94.1083C156.944 91.7766 155.952 88.1693 154.673 82.7889L154.673 82.7888C153.328 77.1358 152.292 72.1372 151.815 69.4128C157.434 66.4232 162.705 61.6806 165.508 56.9675L165.508 56.9674C169.407 50.4095 170.402 43.3839 168.157 37.2134C167.174 34.506 164.12 28.9076 160.765 23.5978L160.765 23.5977C159.074 20.9214 157.501 18.6348 156.216 16.9919L156.215 16.9916C155.4 15.9505 154.618 15.0402 153.819 14.3774C153.012 13.7082 152.117 13.23 151.082 13.1765C150.728 13.1582 150.371 13.1914 150.023 13.2732L118.594 20.64C118.594 20.64 118.594 20.64 118.594 20.64C117.348 20.932 116.513 21.7327 115.931 22.811C115.374 23.8446 115.015 25.1928 114.699 26.7229L114.699 26.7231C114.279 28.7597 113.885 31.5073 113.559 34.6626C112.913 40.9118 112.666 47.284 112.987 50.1451C113.736 56.8215 118.124 62.2668 123.8 65.9981C129.253 69.5829 136.006 71.6653 142.209 71.7743C142.968 74.4983 144.2 79.4224 145.423 84.9231C146.629 90.3436 147.319 94.0314 147.699 96.4424C147.889 97.6482 148.001 98.5288 148.061 99.1434C148.093 99.4682 148.109 99.7038 148.116 99.8662C148.08 99.8996 148.036 99.939 147.982 99.9845C147.761 100.171 147.429 100.416 146.969 100.699C146.051 101.263 144.653 101.963 142.677 102.651C142.677 102.651 142.677 102.651 142.677 102.651C142.676 102.651 142.675 102.652 142.674 102.652L142.564 102.69L142.562 102.691C142.278 102.79 141.928 102.893 141.527 103.01L141.525 103.01L141.461 103.029C140.372 103.348 138.732 103.828 137.477 104.75C136.819 105.234 136.22 105.87 135.866 106.711C135.506 107.563 135.433 108.542 135.69 109.64L135.69 109.64C135.971 110.838 136.942 111.394 137.704 111.647C138.454 111.895 139.235 111.936 139.603 111.954L139.625 111.956C141.498 112.052 144.368 111.746 147.601 111.208C150.857 110.667 154.554 109.876 158.114 108.971C161.672 108.067 165.112 107.042 167.849 106.029C169.216 105.523 170.426 105.013 171.394 104.514C172.329 104.033 173.154 103.505 173.638 102.926L173.639 102.925C174.35 102.072 174.401 101.21 174.258 100.599Z" fill="black" stroke="black" stroke-width="2"/>
<path d="M89.0429 107.798L89.0431 107.797C89.237 107.05 89.329 106.089 88.998 105.089C88.6602 104.069 87.9183 103.121 86.6419 102.362C85.5908 101.738 84.3735 101.35 83.4088 101.043L83.3701 101.03L83.3681 101.03L83.2761 101C82.9116 100.883 82.5985 100.783 82.3388 100.686L82.2286 100.645C80.7857 100.102 79.4734 99.4859 78.4332 98.8679C77.7537 98.4642 77.3099 98.1336 77.036 97.8988C76.9638 97.837 76.9061 97.7841 76.8606 97.7403C76.8723 97.5756 76.8948 97.3395 76.9356 97.017C77.0136 96.4014 77.1513 95.5232 77.3775 94.3245C77.8299 91.9278 78.6321 88.2735 80.0054 82.9163L80.0054 82.9162C81.4479 77.2873 82.8592 72.3815 83.7056 69.7482C90.0706 69.7197 96.9434 67.9773 101.619 65.1118L101.619 65.1118C108.124 61.1245 112.276 55.3704 113.163 48.8646C113.554 46.0107 113.459 39.6343 112.962 33.3729L112.962 33.3728C112.712 30.2168 112.385 27.4608 112.013 25.4085L112.013 25.4081C111.776 24.1071 111.508 22.9372 111.109 21.9786C110.707 21.0108 110.137 20.1705 109.247 19.6413C108.942 19.4602 108.611 19.3234 108.264 19.2336L77.0213 11.1163C77.0213 11.1163 77.0212 11.1163 77.0212 11.1163C75.7828 10.7945 74.6706 11.114 73.6537 11.7974C72.6791 12.4524 71.7337 13.4784 70.7415 14.6853L70.7414 14.6855C69.4211 16.2921 67.7929 18.5401 66.0348 21.1804C62.5527 26.4096 59.3667 31.9336 58.3184 34.6151C55.8722 40.8723 57.2194 47.7346 60.5046 53.6799C63.6609 59.3918 68.6663 64.3791 74.1055 67.3647C73.5082 70.1286 72.3055 75.0599 70.8263 80.4974C69.3688 85.8556 68.2617 89.4404 67.4753 91.751C67.082 92.9066 66.7708 93.7379 66.538 94.3099C66.415 94.6122 66.3193 94.8281 66.25 94.9752C66.2027 94.988 66.1453 95.0023 66.0765 95.0174C65.7936 95.0797 65.3857 95.1413 64.847 95.1773C63.7717 95.2493 62.2089 95.2173 60.1399 94.9066C60.1399 94.9066 60.1398 94.9066 60.1398 94.9066C60.1389 94.9065 60.138 94.9063 60.1372 94.9062L60.0221 94.8886L60.0198 94.8882C59.7222 94.8434 59.3645 94.772 58.9548 94.6884L58.9531 94.6881L58.8877 94.6748C57.776 94.4498 56.1006 94.1107 54.5605 94.3422C53.7528 94.4637 52.9271 94.7479 52.2213 95.3274C51.5068 95.9141 50.9857 96.7457 50.702 97.8374L50.7019 97.8378C50.3929 99.029 50.9934 99.9729 51.5497 100.551C52.0973 101.12 52.7703 101.52 53.0868 101.708L53.1061 101.719C54.7179 102.677 57.401 103.743 60.5123 104.773C63.6459 105.809 67.2858 106.832 70.8577 107.689C74.4273 108.545 77.9486 109.241 80.8424 109.619C82.2879 109.807 83.5961 109.919 84.6851 109.929C85.7368 109.938 86.7128 109.856 87.4108 109.569L87.4122 109.568C88.4385 109.144 88.8846 108.406 89.0429 107.798Z" fill="black" stroke="black" stroke-width="2"/>
<path d="M88.0752 107.546C88.4003 106.293 88.3274 104.527 86.1311 103.222C85.1803 102.657 84.056 102.298 83.0645 101.983C82.6706 101.856 82.2981 101.738 81.9888 101.623L81.8768 101.581C80.3915 101.022 79.0237 100.382 77.9224 99.7276C76.4828 98.8723 75.9529 98.2744 75.8525 98.0975C75.8068 97.3726 76.2831 93.4097 79.0367 82.6679C80.6185 76.4955 82.1673 71.1732 82.9825 68.7439C89.3947 68.851 96.4287 67.1198 101.096 64.2592C107.4 60.3953 111.334 54.88 112.172 48.729C112.547 45.9911 112.461 39.7089 111.966 33.452C111.716 30.3133 111.393 27.5937 111.029 25.5869C110.56 23.0096 110.014 21.2604 108.736 20.501C108.514 20.3694 108.271 20.2684 108.013 20.2016L76.7698 12.0842C74.9812 11.6194 73.4883 12.9187 71.514 15.3204C70.223 16.8913 68.6154 19.1091 66.8671 21.7346C63.3876 26.96 60.2555 32.4066 59.2498 34.9792C54.6424 46.7641 64.2077 61.1544 75.2392 66.8352C74.7088 69.4221 73.4143 74.7934 71.7912 80.7599C68.8691 91.5027 67.3388 95.1831 66.9612 95.7678C66.5344 96.0435 64.2523 96.5358 59.9886 95.8951L59.8708 95.8771C59.5434 95.8277 59.1604 95.7509 58.7549 95.6682C56.4611 95.2044 52.6218 94.4263 51.6698 98.0889C51.3071 99.4873 52.985 100.484 53.6169 100.86C59.6645 104.453 83.029 110.29 87.0304 108.644C87.7337 108.353 87.9865 107.886 88.0752 107.546ZM107.63 42.622C107.623 42.889 107.481 43.0579 107.396 43.1038C107.342 43.1326 106.954 43.3394 106.954 43.3394C98.9019 47.6505 94.325 46.0978 91.2369 44.264C88.7882 42.8091 86.5998 40.6641 84.2824 38.3925C81.7249 35.8858 79.0814 33.2941 75.8102 31.3506C73.4531 29.9501 71.0427 29.0524 68.4692 28.6181C68.3527 28.5986 68.17 28.465 68.3356 28.1862C71.425 22.807 74.4867 18.7594 76.2296 17.1095C76.2978 17.0447 76.3525 16.9408 76.6694 16.9923L105.559 24.4979C105.995 24.5987 105.993 24.7806 106.02 24.8843C106.769 27.7506 107.563 36.1173 107.63 42.622Z" fill="white"/>
<path d="M173.284 100.826C172.989 99.5667 172.101 98.0373 169.55 97.9054C168.446 97.8482 167.284 98.0545 166.259 98.2367C165.852 98.3083 165.467 98.3775 165.14 98.4192L165.021 98.4343C163.447 98.632 161.938 98.7021 160.659 98.6359C158.986 98.5495 158.239 98.2672 158.068 98.1573C157.69 97.5372 156.266 93.8084 153.7 83.0202C152.225 76.8213 151.117 71.3902 150.707 68.8607C156.431 65.9693 161.85 61.1616 164.648 56.4563C168.427 50.1014 169.34 43.3887 167.217 37.5549C166.274 34.9575 163.272 29.438 159.92 24.1319C158.238 21.4704 156.685 19.2145 155.428 17.6081C153.813 15.5455 152.515 14.252 151.03 14.1752C150.773 14.1619 150.511 14.1859 150.251 14.2467L118.822 21.6136C117.023 22.0353 116.307 23.8804 115.679 26.9251C115.268 28.9165 114.878 31.6278 114.554 34.7654C113.908 41.01 113.673 47.2886 113.981 50.0336C115.392 62.6082 130.558 70.888 142.966 70.7778C143.701 73.314 145.057 78.6702 146.4 84.7061C148.817 95.5736 149.176 99.5432 149.115 100.236C148.865 100.679 147.075 102.178 143.003 103.596L142.891 103.635C142.578 103.744 142.203 103.854 141.806 103.97C139.56 104.628 135.8 105.727 136.664 109.412C136.994 110.818 138.943 110.919 139.677 110.957C146.702 111.32 170.096 105.604 172.871 102.284C173.358 101.7 173.364 101.169 173.284 100.826ZM160.354 34.266C160.471 34.5057 160.425 34.7209 160.371 34.8012C160.336 34.8521 160.09 35.2155 160.09 35.2155C154.972 42.7806 150.198 43.5381 146.611 43.3534C143.767 43.2063 140.831 42.3273 137.723 41.3962C134.292 40.369 130.746 39.3067 126.946 39.1101C124.208 38.9685 121.657 39.2966 119.177 40.1108C119.065 40.1478 118.841 40.1146 118.858 39.7908C119.086 33.5918 119.911 28.584 120.685 26.3123C120.715 26.2232 120.715 26.1058 121.019 26.0037L150.08 19.1917C150.513 19.0779 150.596 19.2399 150.668 19.3191C152.666 21.5066 157.265 28.5407 160.354 34.266Z" fill="white"/>
</svg>
