<?xml version="1.0" standalone="no"?>
<!DOCTYPE svg PUBLIC "-//W3C//DTD SVG 20010904//EN"
 "http://www.w3.org/TR/2001/REC-SVG-20010904/DTD/svg10.dtd">
<svg version="1.0" xmlns="http://www.w3.org/2000/svg"
 width="972.000000pt" height="972.000000pt" viewBox="0 0 972.000000 972.000000"
 preserveAspectRatio="xMidYMid meet">
<metadata>
Created by potrace 1.14, written by Peter Selinger 2001-2017
</metadata>
<g transform="translate(0.000000,972.000000) scale(0.100000,-0.100000)"
fill="#000000" stroke="none">
<path d="M9635 7329 c-126 -35 -490 -131 -507 -134 -10 -2 -59 -15 -110 -29
-139 -37 -291 -78 -308 -81 -8 -2 -64 -17 -125 -33 -102 -27 -155 -41 -180
-48 -5 -1 -106 -28 -224 -59 -117 -31 -221 -58 -230 -60 -24 -4 -184 -46 -201
-53 -8 -3 -19 -6 -25 -7 -5 -2 -30 -8 -55 -15 -25 -7 -52 -14 -60 -15 -8 -2
-69 -18 -134 -35 -66 -18 -128 -34 -139 -36 -12 -2 -25 -8 -29 -12 -6 -6 124
-143 314 -335 178 -178 333 -336 346 -350 l24 -25 -248 -246 c-137 -135 -250
-246 -252 -246 -2 0 -1 3 1 8 25 40 28 371 4 472 -36 151 -48 185 -114 315
-59 116 -129 212 -202 279 -19 17 -39 36 -45 42 -18 17 -108 68 -146 82 -95
36 -224 47 -335 27 l-40 -7 -32 69 c-50 106 -102 150 -288 243 -35 17 -135
113 -135 129 0 14 -64 45 -120 59 -60 14 -113 9 -194 -18 -69 -23 -107 -25
-271 -20 -94 3 -115 1 -180 -23 -41 -14 -54 -15 -140 -3 -70 10 -93 10 -149
-3 -101 -24 -190 -99 -245 -209 -26 -52 -35 -61 -78 -77 -108 -40 -195 -110
-262 -210 -19 -27 -35 -51 -37 -53 -3 -4 -48 33 -76 63 -11 11 -33 45 -51 75
-54 95 -180 199 -248 206 -9 0 -21 4 -26 7 -6 4 -37 9 -69 12 -97 9 -110 14
-155 57 -80 76 -160 111 -252 109 -32 0 -40 -1 -133 -22 -47 -11 -55 -9 -124
21 -103 45 -125 51 -203 55 -72 3 -140 -10 -197 -40 -35 -18 -146 -98 -165
-119 -5 -6 -35 -30 -65 -54 -30 -23 -60 -46 -67 -52 -6 -5 -40 -24 -75 -42
-34 -18 -76 -48 -92 -66 -44 -50 -94 -71 -180 -76 -155 -9 -272 -62 -386 -176
-41 -41 -85 -90 -98 -108 -122 -173 -171 -280 -211 -467 -16 -73 -19 -117 -16
-235 4 -160 6 -175 35 -292 35 -143 94 -236 212 -334 69 -58 275 -140 361
-143 13 -1 17 -6 12 -20 -3 -11 -7 -28 -9 -38 -2 -10 -12 -47 -21 -83 -9 -36
-19 -72 -20 -80 -2 -8 -20 -76 -40 -150 -20 -74 -37 -141 -39 -147 -5 -27 -44
-69 -65 -70 -23 -2 -85 -44 -108 -73 -7 -8 -17 -32 -23 -53 -37 -129 9 -205
172 -284 48 -24 89 -43 92 -43 3 0 29 -11 58 -24 117 -52 491 -188 558 -201 8
-2 15 -4 15 -5 0 -1 9 -3 20 -5 11 -2 37 -9 58 -14 20 -6 55 -15 77 -21 22 -5
57 -14 78 -20 31 -8 73 -17 217 -44 23 -4 167 -27 205 -31 14 -2 59 -7 100
-10 41 -4 89 -9 105 -11 17 -3 145 -7 285 -10 243 -6 257 -5 301 15 132 59
170 186 86 287 -13 16 -30 40 -36 52 -19 36 -25 117 -12 166 6 24 13 61 17 83
3 21 10 56 15 78 5 22 12 54 14 70 3 17 7 46 11 65 3 19 8 44 9 55 2 11 6 29
8 40 4 20 16 80 23 125 3 14 14 72 25 130 11 58 23 123 25 145 3 22 7 41 9 43
4 4 256 -36 262 -41 3 -4 49 -230 58 -287 2 -14 7 -38 10 -55 3 -16 12 -66 20
-110 8 -44 20 -102 25 -130 5 -27 12 -66 14 -85 3 -19 7 -46 10 -60 3 -13 8
-42 12 -64 3 -22 8 -44 11 -49 17 -28 2 -79 -41 -141 -41 -56 -47 -72 -51
-125 -3 -52 0 -65 24 -103 33 -51 57 -69 130 -93 52 -17 165 -17 386 0 28 2
97 6 155 9 58 3 114 8 126 10 11 2 54 7 96 10 41 4 86 9 99 11 13 3 41 7 64
10 41 6 78 12 130 21 205 35 643 164 790 234 11 5 58 24 105 43 136 56 261
115 297 143 48 37 75 95 72 157 -4 93 -51 154 -144 189 -22 9 -45 26 -52 39
-11 22 -41 115 -48 149 -5 22 -19 77 -58 230 -19 74 -37 141 -39 149 -2 10 22
20 82 36 105 28 138 41 216 83 55 30 194 148 194 166 0 3 12 24 26 45 14 22
37 66 50 98 14 32 23 45 19 28 -3 -16 -21 -63 -40 -104 -19 -40 -35 -75 -35
-76 0 -2 172 167 381 375 l382 380 -317 316 c-174 174 -316 319 -316 323 0 6
136 46 223 66 9 2 45 11 80 20 34 9 69 18 77 20 8 2 58 16 110 30 52 15 105
29 118 31 13 3 42 11 65 18 23 8 61 17 84 21 24 4 45 11 49 16 3 5 10 7 15 4
5 -4 15 -3 22 2 6 4 17 8 22 9 6 1 30 7 55 14 25 7 52 14 60 15 8 2 15 4 15 5
0 1 7 3 15 5 18 3 279 73 480 127 80 21 152 41 160 43 8 1 35 8 60 15 25 7 52
14 60 16 20 4 200 53 223 60 16 5 18 1 14 -28 -3 -18 -6 -33 -7 -33 -1 0 -3
-7 -5 -15 -1 -8 -14 -58 -29 -110 -39 -147 -86 -323 -91 -341 -2 -10 -20 -79
-40 -155 -20 -77 -39 -146 -41 -154 -2 -8 -17 -67 -34 -130 -17 -63 -33 -122
-35 -130 -5 -18 -160 -602 -208 -783 -19 -70 -37 -130 -40 -133 -2 -3 -147
138 -320 312 -216 216 -320 313 -329 308 -7 -4 -253 -247 -546 -538 -293 -292
-585 -582 -648 -645 -105 -104 -123 -131 -90 -131 7 0 27 -11 45 -24 l33 -25
605 603 605 603 346 -348 c190 -192 349 -349 353 -349 6 0 15 24 24 65 2 6 10
37 19 70 9 33 18 67 20 75 2 8 25 92 50 185 26 94 49 178 51 187 2 9 16 61 30
115 15 54 28 105 30 113 2 8 4 15 5 15 1 0 3 7 5 15 1 8 24 94 50 190 26 96
48 180 50 185 1 6 8 30 15 55 7 25 14 50 16 56 1 6 9 36 18 66 8 30 17 63 19
74 2 10 7 26 10 34 3 8 15 53 27 100 12 47 49 184 82 305 33 121 61 227 63
235 2 8 13 49 25 90 11 41 23 83 25 93 4 19 8 34 20 75 7 26 11 26 -80 1z
m-3594 -253 c19 -8 46 -27 61 -43 26 -27 78 -126 78 -149 0 -6 21 -12 48 -13
100 -3 178 -45 213 -113 28 -56 23 -143 -13 -214 l-26 -51 33 -45 c95 -130
108 -228 41 -293 -23 -23 -84 -54 -136 -71 -61 -19 -81 -31 -78 -48 4 -22 -25
-122 -49 -166 -36 -68 -66 -85 -143 -85 -54 0 -76 6 -128 33 l-64 33 -21 -21
c-92 -84 -139 -105 -243 -105 -72 1 -89 4 -143 33 -55 29 -91 33 -91 11 0 -17
-91 -70 -147 -84 -52 -13 -138 -23 -215 -24 -28 -1 -38 -25 -20 -46 5 -6 14
-30 21 -55 8 -25 17 -57 21 -71 6 -21 7 -91 1 -121 -5 -26 -83 -73 -140 -83
-75 -14 -86 -20 -92 -56 -9 -56 -116 -196 -153 -200 -87 -12 -129 2 -163 55
-32 50 -43 103 -38 186 4 64 1 82 -19 125 -26 54 -56 138 -56 158 0 24 -17 38
-51 44 -132 20 -209 135 -168 252 13 37 82 93 144 117 l44 16 -1 97 c-2 181
36 248 183 327 36 19 71 45 77 57 6 12 22 49 37 82 58 133 120 175 293 199 42
6 40 4 48 50 11 72 14 81 36 125 34 66 86 96 167 96 54 0 77 -6 126 -31 l61
-31 44 35 c98 76 163 83 268 30 l68 -35 38 33 c80 69 172 91 247 60z m-2817
-44 c48 -16 88 -43 143 -95 l41 -39 49 18 c26 10 50 21 53 25 9 12 120 46 143
44 12 -1 29 -3 38 -4 34 -2 77 -56 107 -132 8 -20 17 -26 44 -26 51 -1 199
-13 233 -19 44 -8 93 -33 125 -66 30 -29 68 -117 74 -169 4 -37 5 -38 61 -53
l48 -12 -42 -43 c-87 -90 -137 -190 -147 -290 -6 -73 -11 -85 -42 -103 -93
-55 -151 -158 -168 -298 -3 -30 -7 -56 -8 -57 -1 -1 -22 28 -46 65 -25 37 -50
73 -57 79 -13 14 -33 17 -33 5 0 -8 -32 -45 -98 -116 -43 -45 -110 -79 -145
-72 -42 7 -86 35 -131 82 l-43 44 -18 -27 c-24 -38 -70 -79 -110 -97 -67 -32
-143 -15 -246 54 -33 23 -62 40 -64 38 -1 -1 1 -28 5 -58 19 -147 -6 -221 -87
-260 -96 -45 -170 -8 -258 128 -1 1 -22 -4 -46 -11 -104 -30 -180 -3 -219 78
-26 55 -28 100 -5 146 18 35 91 109 107 109 5 0 -12 25 -37 56 -75 93 -98 139
-98 199 0 82 56 155 174 226 30 18 56 34 57 35 2 1 -4 29 -13 61 -23 78 -25
115 -6 171 28 80 107 145 193 157 53 7 84 29 123 86 51 75 131 136 200 153 35
8 109 2 149 -12z m-836 -482 l3 -39 -79 3 c-163 8 -252 -51 -364 -241 -20 -35
-34 -63 -31 -63 3 0 1 -6 -5 -12 -11 -14 -59 -145 -66 -181 -27 -134 -32 -180
-31 -273 1 -60 5 -129 9 -153 8 -45 44 -152 55 -161 3 -3 17 -21 30 -40 31
-46 116 -115 173 -140 101 -45 247 -58 330 -31 38 13 49 30 69 113 6 26 17 52
24 58 20 17 80 9 78 -10 -3 -26 -14 -73 -18 -80 -2 -4 -7 -22 -10 -41 -3 -19
-13 -57 -21 -85 -8 -28 -16 -60 -18 -70 -2 -11 -11 -46 -20 -79 -8 -33 -18
-75 -21 -94 -3 -19 -8 -37 -10 -41 -2 -3 -6 -17 -9 -31 -3 -13 -7 -34 -10 -46
-4 -13 -8 -33 -11 -44 -2 -12 -11 -46 -20 -76 -9 -29 -18 -73 -20 -97 -13
-130 198 -251 336 -193 82 34 126 98 160 237 28 111 29 113 34 140 9 49 13 66
35 150 12 47 24 96 27 110 18 101 79 303 110 366 29 59 46 82 73 96 37 19 52
11 44 -26 -3 -12 -9 -41 -14 -66 -5 -25 -39 -173 -75 -330 -36 -157 -68 -296
-71 -310 -3 -14 -10 -43 -15 -65 -5 -22 -12 -53 -15 -70 -3 -16 -9 -43 -14
-58 -20 -61 -23 -152 -6 -184 33 -65 149 -131 234 -135 69 -2 152 26 180 61
26 33 42 86 83 269 52 234 52 235 79 362 12 58 23 112 25 120 2 8 22 104 44
213 33 160 46 206 68 236 25 35 98 79 111 67 3 -3 -3 -41 -12 -83 -17 -79 -23
-108 -31 -153 -4 -24 -41 -203 -51 -245 -2 -11 -6 -31 -9 -45 -5 -26 -21 -107
-31 -150 -37 -173 -56 -260 -60 -285 -3 -16 -15 -78 -28 -138 -30 -142 -28
-200 8 -254 32 -48 103 -88 176 -99 174 -25 249 36 275 221 3 17 7 41 11 55 3
14 8 36 10 50 3 14 10 50 16 80 6 30 12 64 13 76 2 11 8 45 14 75 7 31 14 69
17 85 2 16 11 61 19 99 8 39 17 86 20 105 3 19 8 42 10 50 2 8 7 30 10 47 5
32 42 215 52 261 5 22 6 22 19 4 24 -35 2 -422 -33 -577 -2 -11 -6 -33 -9 -50
-3 -16 -10 -47 -15 -68 -6 -21 -12 -50 -14 -65 -5 -30 -11 -63 -25 -137 -6
-27 -12 -63 -15 -80 -2 -16 -6 -39 -8 -50 -3 -11 -8 -40 -12 -65 -4 -25 -9
-54 -11 -65 -2 -11 -6 -31 -9 -45 -3 -14 -12 -65 -20 -115 -9 -49 -18 -103
-21 -120 -13 -70 -12 -76 15 -93 14 -9 28 -19 31 -22 3 -3 17 -13 33 -23 15
-10 27 -21 27 -26 0 -5 -20 -17 -45 -26 -39 -15 -70 -17 -252 -11 -115 3 -221
8 -238 10 -16 2 -63 7 -102 10 -40 4 -83 9 -95 11 -12 3 -38 7 -58 10 -20 3
-45 7 -55 9 -11 2 -45 7 -75 12 -30 4 -57 8 -60 9 -3 1 -21 5 -40 9 -19 4 -62
13 -95 21 -33 8 -75 17 -94 20 -19 3 -38 8 -43 11 -4 3 -18 7 -30 9 -26 5
-119 33 -258 78 -178 57 -560 218 -560 236 0 3 -11 18 -25 33 -14 15 -21 30
-15 33 5 3 39 8 75 12 l65 6 11 41 c6 23 24 89 40 147 15 59 31 122 34 140 3
18 8 36 11 40 4 7 53 188 69 259 2 8 19 70 38 138 19 67 30 125 25 128 -5 3
-56 6 -114 7 -58 0 -107 4 -110 9 -3 4 -9 6 -14 3 -5 -3 -40 4 -77 16 -192 62
-307 203 -339 419 -8 55 -9 256 -1 327 23 208 141 432 303 574 60 52 156 94
224 98 25 2 46 4 48 5 1 2 13 1 25 -1 19 -4 24 -12 25 -43z m4500 26 c29 -8
73 -27 99 -42 151 -88 317 -349 358 -564 16 -81 20 -163 15 -300 -2 -29 -22
-146 -32 -180 -42 -146 -154 -262 -302 -316 -67 -24 -75 -25 -205 -30 -69 -2
-126 -6 -128 -8 -2 -2 5 -37 16 -77 59 -221 83 -311 86 -327 6 -24 63 -237 80
-297 8 -27 16 -61 19 -75 21 -96 19 -93 71 -112 28 -10 51 -18 53 -18 1 0 8 0
15 0 6 0 18 -4 26 -9 11 -7 6 -16 -24 -43 -21 -18 -44 -39 -51 -46 -7 -6 -15
-12 -18 -12 -2 0 -37 -15 -78 -34 -133 -61 -478 -192 -478 -181 0 2 -16 -3
-35 -10 -42 -18 -276 -82 -329 -91 -22 -3 -50 -10 -64 -15 -14 -5 -27 -7 -29
-5 -3 3 -15 1 -27 -3 -12 -5 -44 -12 -71 -15 -28 -4 -57 -9 -65 -11 -8 -2 -33
-6 -55 -10 -22 -3 -51 -8 -65 -10 -14 -2 -52 -7 -85 -10 -33 -4 -73 -8 -90
-10 -118 -14 -428 -23 -465 -13 -39 11 -96 31 -103 37 -4 4 20 29 53 56 39 32
59 54 56 64 -3 9 -10 43 -16 76 -5 33 -12 71 -15 85 -3 14 -7 42 -10 64 -3 21
-7 41 -9 45 -2 3 -7 24 -10 46 -11 65 -16 96 -31 170 -8 39 -17 84 -20 100
-10 59 -15 82 -46 230 -50 244 -49 286 9 338 19 17 20 17 27 -15 4 -18 9 -37
10 -43 2 -5 6 -28 9 -50 4 -22 8 -47 11 -55 2 -8 6 -26 9 -40 3 -14 12 -61 20
-105 8 -44 17 -91 20 -105 3 -14 10 -50 16 -80 6 -30 13 -66 16 -80 2 -14 9
-45 14 -70 5 -25 12 -61 15 -80 9 -55 42 -114 74 -133 68 -40 178 -40 264 1
123 58 152 118 123 257 -31 146 -38 184 -42 205 -2 14 -9 45 -14 70 -6 25 -12
55 -15 68 -2 13 -6 31 -9 40 -3 9 -7 35 -11 57 -3 22 -10 56 -15 75 -5 19 -23
105 -40 190 -37 182 -39 189 -55 260 -5 26 -15 73 -19 100 -7 35 16 69 56 85
22 9 42 15 43 13 2 -3 31 -125 41 -173 2 -11 8 -42 14 -70 6 -27 12 -59 14
-70 3 -11 13 -58 24 -105 11 -47 23 -101 26 -121 3 -20 8 -42 10 -50 3 -8 8
-26 11 -41 9 -49 14 -73 46 -209 17 -74 33 -147 35 -164 3 -16 10 -48 16 -70
6 -22 13 -55 15 -74 12 -87 62 -142 150 -165 117 -30 222 5 278 95 38 59 48
155 25 240 -7 24 -14 55 -17 69 -2 14 -11 52 -20 85 -18 73 -18 70 -27 120 -5
22 -21 94 -36 160 -16 66 -31 131 -34 145 -6 31 -11 51 -40 180 -48 211 -56
248 -56 272 0 23 3 26 25 22 66 -12 98 -39 109 -94 8 -41 13 -62 31 -130 9
-36 18 -74 20 -85 3 -21 69 -301 88 -370 12 -47 13 -52 20 -85 3 -14 24 -101
47 -195 23 -93 42 -176 43 -182 0 -7 3 -13 6 -13 3 0 12 -13 19 -30 29 -64
125 -95 230 -73 159 33 233 126 199 252 -5 18 -10 41 -12 50 -2 9 -24 102 -50
206 -26 105 -48 195 -49 200 -2 6 -8 28 -14 50 -6 22 -13 51 -16 65 -3 14 -17
70 -31 125 -15 55 -28 107 -30 115 -2 8 -15 62 -30 120 -15 58 -29 113 -31
124 -2 10 -10 42 -18 70 -34 122 -31 157 18 176 16 5 23 1 33 -18 7 -13 13
-30 13 -36 0 -7 9 -42 19 -77 11 -35 34 -118 51 -184 30 -115 35 -134 44 -172
40 -173 60 -224 94 -242 66 -35 223 -26 328 20 139 59 247 205 270 366 11 74
5 236 -11 313 -3 14 -8 41 -11 60 -3 19 -8 38 -11 42 -2 5 -6 18 -9 30 -7 32
-10 40 -22 71 -7 16 -12 31 -12 33 0 17 -78 157 -113 204 -51 68 -68 83 -134
116 -58 29 -138 38 -200 23 -64 -16 -67 -17 -105 -33 l-37 -16 -21 35 c-12 20
-20 42 -17 49 17 43 197 68 295 42z m-10 -218 c72 -22 143 -113 201 -258 75
-189 95 -394 51 -531 -20 -60 -33 -83 -74 -124 -68 -66 -176 -105 -234 -84
-21 8 -49 57 -57 101 -2 10 -22 83 -45 162 -57 201 -90 352 -91 416 -2 96 63
245 130 301 33 27 71 33 119 17z m-4660 -65 c-36 -109 -30 -218 17 -320 l24
-53 -20 -48 c-36 -84 -47 -151 -34 -207 13 -56 38 -108 66 -138 29 -32 59
-100 59 -135 l0 -31 -73 3 c-168 8 -282 114 -293 275 -16 221 16 375 115 558
36 67 115 153 141 153 16 0 16 -5 -2 -57z m4087 -655 c11 -35 20 -67 21 -73 1
-5 14 -55 28 -110 15 -55 29 -111 32 -124 3 -13 23 -95 45 -183 22 -88 43
-169 45 -179 2 -11 6 -29 9 -40 2 -12 9 -36 14 -53 6 -17 12 -42 15 -56 3 -14
15 -65 28 -115 13 -49 22 -98 20 -107 -5 -25 -48 -49 -97 -54 -40 -5 -45 -3
-58 23 -8 15 -24 71 -36 123 -12 52 -26 111 -31 130 -6 19 -19 76 -31 125 -11
50 -45 189 -74 310 -30 121 -56 234 -60 252 -3 18 -10 44 -15 58 -11 29 -14
82 -3 72 3 -4 12 -2 20 4 15 13 95 58 104 59 3 0 14 -28 24 -62z m-2813 -90
l49 -22 -6 -41 c-4 -22 -10 -53 -15 -70 -5 -16 -12 -50 -15 -75 -4 -24 -9 -48
-11 -52 -3 -4 -7 -18 -9 -30 -17 -88 -48 -236 -52 -248 -3 -8 -7 -22 -8 -30
-1 -8 -5 -28 -9 -45 -3 -16 -8 -39 -10 -50 -9 -47 -87 -383 -96 -417 -6 -21
-16 -40 -22 -44 -19 -12 -90 -5 -114 11 -28 18 -33 47 -17 110 6 28 14 61 17
75 2 14 16 74 31 134 15 60 28 116 30 125 2 9 9 39 15 66 6 28 13 58 15 68 2
10 6 26 9 35 3 9 7 28 10 42 2 14 14 66 26 115 12 50 23 99 26 110 2 11 6 31
9 45 3 14 7 34 9 45 22 113 45 165 73 165 9 0 39 -10 65 -22z m2228 18 c0 -7
39 -183 54 -241 8 -33 24 -100 35 -150 11 -49 29 -128 40 -175 11 -47 22 -96
25 -110 3 -14 13 -56 22 -95 8 -38 17 -77 19 -85 1 -8 8 -35 15 -60 7 -25 14
-54 16 -65 2 -11 6 -33 10 -48 13 -61 11 -76 -12 -98 -16 -15 -37 -22 -70 -23
-43 -1 -49 2 -66 30 -10 17 -20 44 -22 60 -5 34 -14 79 -22 114 -3 14 -7 32
-9 40 -4 18 -35 167 -41 195 -2 11 -6 31 -9 45 -2 14 -16 77 -30 140 -14 63
-28 126 -31 140 -2 14 -22 104 -43 200 -30 137 -35 176 -25 180 15 6 144 12
144 6z m-1602 -49 c14 -11 12 -77 -3 -137 -4 -14 -8 -32 -9 -40 -2 -8 -6 -28
-9 -45 -4 -16 -9 -41 -11 -55 -3 -14 -14 -72 -26 -130 -12 -58 -23 -114 -24
-125 -4 -21 -23 -124 -31 -165 -3 -14 -7 -38 -10 -55 -3 -16 -8 -41 -10 -55
-3 -14 -8 -36 -10 -50 -3 -14 -8 -41 -11 -60 -3 -19 -7 -43 -10 -52 -3 -10 -8
-30 -10 -45 -3 -16 -10 -48 -16 -73 -5 -25 -12 -63 -15 -85 -5 -43 -34 -77
-61 -71 -68 12 -100 28 -106 50 -3 13 12 111 35 217 22 107 43 208 46 224 8
44 11 60 13 60 1 0 3 9 5 20 1 11 5 31 8 45 39 188 77 370 81 390 7 39 47 223
52 242 4 13 14 15 62 11 31 -3 63 -10 70 -16z m3376 -42 c-4 -8 -8 -15 -10
-15 -2 0 -4 7 -4 15 0 8 4 15 10 15 5 0 7 -7 4 -15z m-4646 -199 c31 -1 32 -2
27 -36 -3 -19 -10 -53 -16 -75 -10 -37 -13 -50 -24 -100 -11 -47 -105 -437
-115 -474 -13 -48 -41 -60 -100 -42 -54 16 -69 34 -63 73 3 18 40 174 84 347
43 174 79 316 79 318 0 1 21 -1 48 -4 26 -3 62 -7 80 -7z m2345 -31 c3 -16 24
-122 47 -235 23 -113 44 -214 46 -225 1 -11 13 -65 24 -120 37 -168 56 -263
64 -307 6 -35 -19 -66 -59 -73 -16 -2 -40 -7 -52 -9 -40 -8 -48 10 -88 224
-10 52 -24 126 -29 145 -2 11 -11 58 -20 105 -9 47 -18 96 -21 110 -3 14 -9
50 -15 80 -6 30 -12 66 -15 80 -18 85 -17 118 4 156 18 31 100 109 107 101 1
-1 4 -15 7 -32z"/>
<path d="M828 4360 l-828 -829 180 -180 c100 -100 184 -181 188 -181 11 0
1742 1734 1742 1745 0 6 -12 12 -27 13 -16 1 -43 7 -62 13 l-34 11 -806 -806
c-443 -443 -810 -806 -814 -806 -5 0 -51 43 -104 95 l-95 96 791 786 791 786
-38 43 c-20 23 -41 42 -47 42 -5 1 -382 -372 -837 -828z"/>
<path d="M7135 5003 c-59 -31 -177 -73 -203 -73 -18 0 -18 -3 -6 -47 26 -99
16 -101 147 29 66 65 117 118 115 118 -1 -1 -25 -13 -53 -27z"/>
<path d="M4386 4483 c-4 -27 -10 -57 -12 -68 -10 -44 -8 -133 3 -156 13 -25
153 -405 153 -414 0 -4 13 -41 30 -83 30 -78 106 -285 162 -442 16 -47 34 -94
39 -105 5 -11 70 -189 144 -395 75 -206 144 -394 153 -417 l18 -41 668 664
c367 365 662 664 655 664 -12 0 -177 -46 -211 -59 -10 -3 -252 -240 -538 -525
-296 -295 -525 -515 -529 -510 -5 5 -19 38 -31 74 -12 36 -33 92 -45 125 -13
33 -69 186 -125 340 -139 384 -144 395 -155 395 -15 1 -56 40 -86 80 -39 54
-49 97 -43 175 3 39 6 79 6 90 1 16 -146 425 -182 510 -5 11 -19 48 -31 83
-12 34 -25 62 -29 62 -4 0 -11 -21 -14 -47z"/>
<path d="M5647 3524 c-3 -3 -35 -9 -110 -20 -44 -6 -56 -15 -149 -107 -87 -85
-103 -97 -109 -81 -4 10 -17 46 -30 79 -12 33 -26 65 -31 71 -7 9 -128 20
-128 12 1 -9 139 -380 144 -385 2 -3 105 93 227 214 121 121 214 220 205 220
-9 0 -17 -2 -19 -3z"/>
</g>
</svg>
