<?xml version="1.0" encoding="utf-8"?>
<!-- Generator: Adobe Illustrator 27.0.0, SVG Export Plug-In . SVG Version: 6.00 Build 0)  -->
<svg version="1.1" id="Layer_1" xmlns="http://www.w3.org/2000/svg" xmlns:xlink="http://www.w3.org/1999/xlink" x="0px" y="0px"
	 viewBox="0 0 243.3 124.9" style="enable-background:new 0 0 243.3 124.9;" xml:space="preserve">
<style type="text/css">
	.st0{fill:#FFFFFF;}
</style>
<g>
	<g>
		<path class="st0" d="M52.9,60.7l-0.1,0.5L9.2,104.8L0,95.6l41.7-41.7c0.3,0.4,0.6,0.8,1,1.2c0.3,0.4,0.7,0.7,1.1,1.1L4.2,95.6l5,5
			L49.8,60c0.5,0.2,1.1,0.4,1.6,0.5c0.3,0.1,0.6,0.2,0.9,0.2C52.5,60.7,52.7,60.7,52.9,60.7z"/>
		<path class="st0" d="M180.4,57.7L174,64l-0.5-1.7l-0.4-1.6c0.2,0,0.3-0.1,0.5-0.1c0.8-0.2,1.6-0.4,2.3-0.7
			C177.6,59.4,179.1,58.6,180.4,57.7z"/>
		<path class="st0" d="M243.3,0l-16.4,60.8l-17.6-17.7L179,73.3c-0.4-0.3-0.8-0.6-1.2-0.9c-0.5-0.3-1-0.5-1.5-0.6l33.1-32.9
			L225.5,55L239,4.2l-50.8,13.5l16.1,16.1l-19.7,19.6c1-1.4,1.8-2.9,2.3-4.5c0.4-1,0.6-1.9,0.9-3l12.3-12.2L182.5,16L243.3,0z"/>
		<path class="st0" d="M142.2,95.7L131,106.8l-3.6-9.9c0.5,0,1,0,1.6,0c0.5,0,1,0,1.6,0l1.7,4.6l5.1-5.1c0.8-0.1,1.6-0.2,2.4-0.3
			C140.6,95.9,141.4,95.8,142.2,95.7z"/>
		<path class="st0" d="M160.7,91.4L127,124.9l-17.9-49l0.5-2.9l0.5-2.9l6.3,17.1c-0.2,0.5-0.3,0.9-0.4,1.4s-0.1,1-0.1,1.5
			c0,1.4,0.5,2.8,1.5,4l0,0c0.7,0.8,1.4,1.3,2.2,1.7l7.1,19.4l0,0l1.5,4.2l3.2-3.2l23.2-23.1c1-0.2,2-0.5,2.9-0.8
			c0.9-0.2,1.8-0.5,2.7-0.8C160.4,91.5,160.5,91.5,160.7,91.4z"/>
	</g>
</g>
<path class="st0" d="M165.6,15.6c8.1-1.9,13.9,1.7,17.9,8.2c4.1,6.5,5.6,13.8,4.2,21.4c-1.3,6.9-5.5,11.4-12.4,13.3
	c-0.9,0.2-1.8,0.4-3,0.7c1.2,4.6,2.3,9.1,3.6,13.6c0.1,0.4,0.7,0.8,1.2,0.9c2.4,0.7,3.8,2.3,3.9,4.8c0.1,2.4-1.3,3.9-3.4,4.9
	c-10.3,4.9-21,8.6-32.3,10.2c-6.3,0.9-12.8,1.1-19.2,1.5c-1.3,0.1-2.7-0.1-4-0.6c-3.4-1.3-4.2-5.1-1.7-8c0.5-0.6,1.2-1.5,1.1-2.1
	c-1.3-7.5-2.7-15-4.1-22.3c-2.2-0.4-4.3-0.7-6.6-1.1c-1,5.2-2,10.7-3,16.1c-0.3,1.4-0.5,2.8-0.8,4.2c-0.5,2.2-0.8,4.1,1.1,6.2
	c2.7,3,0.1,7.5-4.3,7.6c-5.1,0.1-10.3-0.1-15.4-0.6c-12.4-1.3-24.2-4.8-35.6-9.9c-1.2-0.5-2.3-1.1-3.4-1.8c-1.7-1-2.6-2.6-2.4-4.6
	c0.2-2.1,1.3-3.7,3.3-4.3c1.4-0.4,1.8-1.2,2.1-2.4c1-4.1,2.1-8.1,3.2-12.3c-1-0.2-1.8-0.4-2.6-0.6c-6.2-1.5-10.7-5.2-12.2-11.4
	c-2.5-10.2-0.4-19.7,7-27.5c3-3.2,6.8-4.8,11.3-4.6c0.8,0,1.7-0.7,2.5-1.2c0.7-0.5,1.1-1.5,1.9-1.8c3.4-1.4,5.8-4.1,8.7-6.2
	C76,3,80.3,3.3,84.5,5.6c0.7,0.4,1.9,0.5,2.7,0.2c3.7-1.3,7-0.5,9.7,2.5c0.5,0.5,1.4,1,2.1,1c4.9,0,8.4,2.2,10.6,6.7
	c0.5,1,1.6,1.6,2.6,2.6c2.1-3.6,4.6-5.9,8.2-6.9c0.5-0.1,0.9-1,1.2-1.6c2-4.4,6.2-6.5,10.9-5.3c0.8,0.2,1.9,0.2,2.6-0.2
	c2.7-1.3,5.3-0.4,8.1-0.4c2.5,0,5-2,7.8-1.2c1.1,0.3,2.7,0.7,3.2,1.5c2.2,4.2,7.8,4.1,10,8.2C164.8,13.5,165.1,14.5,165.6,15.6z
	 M134.5,10c-4.9-3.6-9.6-1.7-9.8,4.9c-0.2,0.1-0.4,0.2-0.6,0.2c-5.2,0.5-6.9,1.9-8.5,6.7c-0.2,0.6-1,1.3-1.7,1.6
	c-2.7,1.1-4.6,2.9-5,5.8c-0.3,1.6,0,3.3,0,5c-3.8,1.4-5.2,2.7-5,5.2c0.3,3.5,2.8,4.4,5.4,4.6c0.6,1.8,0.8,3.5,1.7,4.8
	c0.7,1.1,0.7,1.8,0.5,3.1c-0.3,1.5,0.1,3.5,0.9,4.8c1,1.6,3.1,2.1,4.7,1.1c1.3-0.8,2.2-2.5,3.1-3.8c0.3-0.5,0.2-1.2,0.2-1.8
	c6.6-1.2,7.2-2.4,4.4-9.8c3.7-0.4,7.8,0.1,10.5-3.5c4.5,3.2,8.5,2.2,11.9-1.4c5.7,3.7,8.8,1.9,9.7-5.3c7.2-1.7,8.2-4.8,3.3-10.8
	c3.4-4.9,1.2-9.8-5.5-9.5c-1.2-5.7-6-7.5-10.6-2.7C139.7,6.6,138.4,6.7,134.5,10z M62.3,36.1c-2.3,1.6-4.4,3.6-2.7,6.7
	c1.5,2.9,4.1,2.3,6.6,1.5c2.1,3.3,3.7,4.3,5.8,3.6c4.2-1.5,2.9-5,2.7-8.6c4,3.5,7.8,4.7,11-0.5c1.8,2,3.7,4.1,6.2,2.8
	c1.9-1,3.2-3.2,4.7-4.8c0.9,1.3,2,2.9,3,4.4c0.1-4.1,1.2-7.2,4.6-9.3c0.3-0.2,0.7-0.6,0.7-0.9c0-4,1.7-7.1,4.9-9.8
	c-1.1-0.3-1.9-0.5-2.7-0.7c-0.3-2.8-1.2-5.6-3.9-6.5c-2.4-0.8-5.1-0.6-8-0.9c-0.4-1.7-1.3-4.1-3.9-4c-2,0.1-3.9,1.5-6,2.3
	c0.1,0.1-0.1-0.1-0.3-0.4c-4.6-5.2-10.3-4.5-13.7,1.5c-0.3,0.6-1.4,1-2.2,1.1c-3.8,0.5-6.1,3.8-5.2,7.3c0.2,0.8,0.5,1.6,0.8,2.4
	C57.5,27.2,56.8,30.5,62.3,36.1z M126.1,87.8c-1.3,1.1-2.2,1.8-3.1,2.6c1.2,0.4,2.4,0.8,3.6,1.1c0.1,0,0.2,0,0.2,0
	c16.6,0,32.4-3.6,47.4-10.6c1.1-0.5,2-1.7,3-2.5c-1.2-0.3-2.4-0.6-4-1.1c-1.8-7-3.8-14.4-5.8-22c1.6,0,3,0,4.3,0
	c6-0.3,10.8-3.9,12-9.7c1.7-8.4,0-16.1-5.7-22.6c-2.9-3.3-6.6-4.8-11.1-3.6c-2.4,0.7-2.5,1.2-0.8,3.1c5.9-2.8,10-1.4,13.2,4.4
	c2.4,4.3,3.4,9,3.5,13.9c0.2,8.4-5.8,13.9-13.7,12.9c-1.6-0.2-2.4-0.8-2.8-2.5c-1.3-5.5-2.8-10.9-4.3-16.3c-2.1,0.2-1.9,1.4-1.6,2.8
	c2.5,9.8,5,19.7,7.4,29.5c0.9,3.5-0.5,5.6-4.2,6.6c-4,1-6.5-0.2-7.3-3.8c-2-8.4-4.1-16.8-6-25.2c-0.4-1.9-1.5-2.3-3.4-2.4
	c0.1,0.8,0.1,1.5,0.2,2.1c1.9,8.3,3.8,16.7,5.7,25c1.2,5.3-2.5,9-7.8,7.7c-1.9-0.5-3.1-1.5-3.5-3.5c-0.7-3.6-1.6-7.3-2.4-10.9
	c-1.3-6.2-2.7-12.3-4-18.5c-2.2,0.4-2.9,1.2-2.4,3.5c1.9,8.6,3.6,17.2,5.4,25.8c0.4,1.9,0.6,3.9-1.2,5.2c-2.2,1.7-4.6,2.4-7.4,1.6
	c-2.6-0.7-2.8-2.9-3.2-5c-1.1-5.7-2.2-11.4-3.4-17.3c-1.7,1.1-2,2.4-1.7,4.2C123,70.9,124.6,79.6,126.1,87.8z M54.8,77.8
	c-0.5,0-0.6,0-0.8,0c-1,0.1-2,0.3-3,0.4c0.7,0.7,1.2,1.8,2,2.2c15.6,7.5,32.1,11.2,49.4,11c0.9,0,1.8-0.7,2.7-1
	c-0.7-0.6-1.4-1.1-2.2-1.7c-0.2-0.2-0.6-0.2-0.9-0.4c0-0.5,0.1-1,0.1-1.5c1.3-7.2,2.5-14.4,4-21.5c1-4.8,1.3-9.7,1.2-14.6
	c0-0.2-0.3-0.4-0.6-0.8c-0.2,0.7-0.3,1-0.4,1.4c-1.6,8.3-3.2,16.6-4.8,25c-0.7,3.5-2.8,4.9-6.6,4.2c-4-0.7-5.8-3-5.1-6.5
	c1.1-5.6,2.3-11.2,3.5-16.8c0.9-4.4,1.8-8.8,2.7-13.2c-2.6,0.6-3.6,2-4,4.4c-1.6,8.2-3.4,16.3-5.2,24.4c-0.4,1.8-0.9,3.4-2.8,4.1
	c-2.8,1-5.3,0.4-7.6-1.4c-2.1-1.6-1.6-3.7-1.1-5.9c1.8-7.8,3.6-15.5,5.3-23.3c-0.2-0.2-0.4-0.4-0.5-0.5c-0.7,0.5-1.6,0.8-2,1.5
	c-0.8,1.6-1.6,3.3-2,5c-1.4,5.5-2.7,11.1-4,16.6c-1.2,5.1-5.7,6.8-10.1,3.8c-1.7-1.2-2.5-2.7-1.9-4.9c0.9-3,1.6-6.1,2.3-9.2
	c0.8-3.2,1.6-6.4,2.4-9.6c-2-0.7-2.5,0.1-2.8,1.6c-0.3,1.2-0.2,2.6-2.1,2.9c-6.9,1.3-13.5-3-14.3-9.9c-0.8-6.5,0.6-12.7,4.1-18.2
	c2.2-3.5,5.4-5.3,9.7-4.3c0.1,0,0.2-0.1,0.5-0.3c-0.1-0.6-0.2-1.2-0.2-1.8c-3.7-0.4-6.6,1-9,3.4C45,28.1,43.3,35.3,44,43
	c0.7,8.2,6.1,12.5,14.4,12.3c0.8,0,1.5,0,2.4,0C58.7,62.9,56.8,70.3,54.8,77.8z M179.1,40.9c-0.2-4.9-1.2-9.6-4-13.7
	c-1.9-2.8-5-3.6-6.7-1.2c-1.5,2-2.8,5.1-2.5,7.4c0.7,5.1,2.5,10,3.7,14.9c0.4,1.4,1.1,1.7,2.4,1.6C176.3,49.5,179.1,46.1,179.1,40.9
	z M56,25.2c-0.2-0.1-0.4-0.2-0.6-0.3c-0.9,0.8-1.9,1.6-2.6,2.6c-3.1,4.9-4.3,10.2-3.6,15.9c0.6,4.4,4.2,6.9,9.2,6.3
	c-0.2-1-0.1-2.2-0.6-2.8c-3.3-3.9-3.6-6.2-1.2-11.1C54.5,32.5,54.4,28.9,56,25.2z M100,45.3c-0.2,0.3-0.3,0.5-0.3,0.6
	c-2,9.6-4,19.2-6,28.8c-0.4,1.8,1,1.9,2.1,2.2c1.2,0.3,2,0.1,2.1-1.4c0.1-1.2,0.4-2.3,0.7-3.5c1.6-8.1,3-16.2,4.7-24.2
	c0.4-1.8-0.1-2.4-1.8-2.3C101,45.5,100.5,45.4,100,45.3z M139.2,44.8c2,9,3.9,17.8,5.7,26.6c0.3,1.5,0.7,2.5,2.6,2.1
	c2-0.4,2-1.5,1.6-3.1c-1.5-6.2-2.9-12.5-4.3-18.7c-0.6-2.4-1.2-4.8-1.7-7.2C141.7,44.6,140.6,44.7,139.2,44.8z M88.7,45.7
	c-3.6-1.8-3.6-1.8-4.5,2c-0.6,2.8-1.3,5.6-1.9,8.3c-1.1,5-2.3,10-3.5,15c-0.3,1.4,0.2,2.1,1.5,2.3c1.1,0.2,2.3,0.5,2.6-1.1
	C84.9,63.5,86.8,54.6,88.7,45.7z M153.8,43.1c2.1,8.7,4.2,17.3,6.2,25.8c0.4,1.7,1.4,1.6,2.7,1.2c1.2-0.3,1.9-0.7,1.5-2.3
	c-1.4-5.3-2.7-10.6-4-15.9c-0.9-3.5-1.8-7-2.8-10.7C156.1,41.9,155.1,42.4,153.8,43.1z M129.8,51.8c-0.9,0.8-1.8,1.3-2.4,2.1
	c-0.5,0.6-0.9,1.5-0.8,2.2c1.2,6.4,2.5,12.9,3.7,19.3c0.2,1.3,0.9,1.8,2.1,1.5c1.1-0.3,2.5-0.4,2.1-2.2
	C132.9,67,131.3,59.4,129.8,51.8z M68.1,51.6C66.7,57.1,65.4,62.5,64,68c-0.4,1.5,0.4,1.8,1.5,2.1c1.1,0.3,2.3,0.6,2.6-1
	c1.4-5.7,2.7-11.3,4.1-17.1C70.7,51.9,69.5,51.8,68.1,51.6z"/>
</svg>
